<svg width="126" height="32" viewBox="0 0 126 32" fill="none" xmlns="http://www.w3.org/2000/svg">
<path opacity="0.75" d="M5.60323 11.9949H7.59495V14.2654H5.60323V11.9949ZM5.60323 19.9485H7.59495V23.414H5.60323V19.9485ZM4.20903 14.6903H6.21403C6.15206 15.248 6.05026 15.757 5.90863 16.2173C5.77585 16.6776 5.55455 17.0937 5.24473 17.4655C4.9349 17.8372 4.49673 18.1648 3.93019 18.448C3.37251 18.7224 2.63779 18.957 1.72603 19.1518C1.67291 18.9924 1.58882 18.811 1.47374 18.6074C1.36752 18.4038 1.24359 18.2046 1.10195 18.0099C0.969175 17.8063 0.836394 17.6425 0.703613 17.5186C1.46489 17.3946 2.06683 17.2486 2.50943 17.0804C2.96089 16.9033 3.30169 16.6997 3.53185 16.4696C3.762 16.2394 3.92134 15.9783 4.00986 15.6862C4.09838 15.3852 4.16477 15.0533 4.20903 14.6903ZM7.10366 14.6638H9.01571V16.6422C9.01571 16.837 9.04227 16.9565 9.09538 17.0007C9.14849 17.045 9.26357 17.0671 9.44061 17.0671C9.48487 17.0671 9.54241 17.0671 9.61323 17.0671C9.69289 17.0671 9.77699 17.0671 9.86551 17.0671C9.96288 17.0671 10.0514 17.0671 10.1311 17.0671C10.2196 17.0671 10.286 17.0671 10.3303 17.0671C10.4365 17.0671 10.5162 17.045 10.5693 17.0007C10.6224 16.9565 10.6622 16.8724 10.6888 16.7484C10.7153 16.6157 10.7375 16.4209 10.7552 16.1642C10.8791 16.2527 11.034 16.3412 11.2199 16.4298C11.4147 16.5094 11.6183 16.5847 11.8307 16.6555C12.0432 16.7263 12.2335 16.7794 12.4017 16.8148C12.3397 17.3017 12.2335 17.6823 12.083 17.9567C11.9414 18.2312 11.7466 18.4215 11.4987 18.5277C11.2509 18.6339 10.9278 18.687 10.5294 18.687C10.4409 18.687 10.3347 18.687 10.2108 18.687C10.0868 18.687 9.95846 18.687 9.82568 18.687C9.69289 18.687 9.56454 18.687 9.44061 18.687C9.31668 18.687 9.21488 18.687 9.13521 18.687C8.57753 18.687 8.15263 18.6251 7.86051 18.5011C7.5684 18.3684 7.36922 18.1559 7.263 17.8638C7.15677 17.5628 7.10366 17.1601 7.10366 16.6555V14.6638ZM0.902785 13.0837H12.4149V16.058H10.4099V14.8231H2.80155V16.2704H0.902785V13.0837ZM2.21732 19.2182H11.366V20.931H2.21732V19.2182ZM0.809838 22.5377H12.4681V24.2771H0.809838V22.5377ZM25.0159 11.9418L26.4101 13.5484C25.6842 13.7254 24.9096 13.8804 24.0864 14.0131C23.2632 14.1371 22.4178 14.2433 21.5503 14.3318C20.6916 14.4203 19.8286 14.4912 18.961 14.5443C18.1024 14.5974 17.2659 14.6372 16.4515 14.6638C16.4249 14.4159 16.363 14.1238 16.2656 13.7874C16.1682 13.451 16.0708 13.1766 15.9735 12.9642C16.779 12.9376 17.5934 12.8978 18.4166 12.8447C19.2487 12.7827 20.0587 12.7075 20.8465 12.6189C21.6432 12.5304 22.3957 12.433 23.1038 12.3268C23.812 12.2117 24.4493 12.0834 25.0159 11.9418ZM16.1594 15.726H26.742V17.5717H16.1594V15.726ZM15.2299 18.8065H27.552V20.692H15.2299V18.8065ZM20.3951 14.0795H22.4134V22.4182C22.4134 22.9582 22.3425 23.3654 22.2009 23.6398C22.0593 23.9142 21.807 24.1266 21.4441 24.2771C21.09 24.4188 20.6562 24.5117 20.1428 24.556C19.6294 24.6002 19.0407 24.6179 18.3768 24.6091C18.3414 24.4232 18.2794 24.2152 18.1909 23.985C18.1024 23.7549 18.005 23.5247 17.8988 23.2945C17.7926 23.0644 17.6908 22.8652 17.5934 22.697C17.9032 22.7059 18.2175 22.7147 18.5361 22.7236C18.8637 22.7324 19.1558 22.7369 19.4125 22.7369C19.6781 22.7369 19.864 22.7369 19.9702 22.7369C20.1207 22.7369 20.2269 22.7103 20.2889 22.6572C20.3597 22.6041 20.3951 22.5111 20.3951 22.3784V14.0795ZM30.1811 13.814H42.0782V15.6596H30.1811V13.814ZM30.7387 22.5377C31.3318 22.4492 32.0002 22.3429 32.7437 22.219C33.4962 22.0862 34.2796 21.9446 35.094 21.7941C35.9172 21.6348 36.7227 21.4799 37.5106 21.3294L37.6832 23.2282C36.9573 23.3786 36.2137 23.5291 35.4525 23.6796C34.7 23.8389 33.9697 23.985 33.2616 24.1178C32.5534 24.2594 31.8984 24.3922 31.2964 24.5161L30.7387 22.5377ZM40.6442 16.0978L42.2907 17.2928C41.9278 17.6292 41.5427 17.9656 41.1355 18.302C40.7283 18.6384 40.3255 18.9526 39.9272 19.2447C39.5288 19.5368 39.1526 19.7935 38.7986 20.0148L37.3645 18.8597C37.7186 18.6384 38.0948 18.3772 38.4932 18.0762C38.8915 17.7664 39.2766 17.4433 39.6484 17.1069C40.029 16.7617 40.3609 16.4253 40.6442 16.0978ZM35.0807 11.9949H37.099V14.9824H35.0807V11.9949ZM37.6699 14.9161C37.7938 15.7747 37.9532 16.5758 38.1479 17.3194C38.3515 18.063 38.6304 18.7623 38.9844 19.4173C39.3474 20.0635 39.821 20.6655 40.4052 21.2232C40.9894 21.7808 41.7286 22.3031 42.6227 22.79C42.3659 22.9936 42.096 23.2636 41.8127 23.5999C41.5383 23.9363 41.3391 24.2594 41.2152 24.5692C40.2237 23.9319 39.4049 23.268 38.7587 22.5775C38.1214 21.8782 37.6079 21.1479 37.2185 20.3866C36.829 19.6254 36.5236 18.8198 36.3023 17.97C36.081 17.1202 35.8951 16.2173 35.7446 15.2613L37.6699 14.9161ZM35.1471 14.4779L37.099 15.2613C36.6032 15.934 36.0279 16.5847 35.3728 17.2132C34.7177 17.8328 34.0007 18.4038 33.2217 18.926C32.4516 19.4395 31.6461 19.8776 30.8051 20.2406C30.7255 20.0812 30.6192 19.8953 30.4865 19.6829C30.3625 19.4704 30.2342 19.2624 30.1014 19.0588C29.9686 18.8552 29.8491 18.687 29.7429 18.5543C30.4953 18.271 31.2212 17.9125 31.9205 17.4787C32.6198 17.0361 33.2483 16.5537 33.806 16.0314C34.3725 15.5091 34.8195 14.9913 35.1471 14.4779ZM32.5578 18.5011L34.1379 16.921L34.523 17.0538V22.936H32.5578V18.5011ZM52.2758 14.2256C52.1785 14.8983 52.059 15.6154 51.9173 16.3766C51.7757 17.1379 51.5765 17.9346 51.3198 18.7667C51.0631 19.6519 50.7577 20.4265 50.4036 21.0904C50.0495 21.7543 49.6512 22.2721 49.2086 22.6439C48.7748 23.0157 48.2968 23.2016 47.7746 23.2016C47.2257 23.2016 46.73 23.0246 46.2874 22.6705C45.8537 22.3075 45.5084 21.8207 45.2517 21.2099C45.0039 20.5902 44.8799 19.9042 44.8799 19.1518C44.8799 18.3639 45.0393 17.6204 45.3579 16.921C45.6766 16.2129 46.1192 15.5888 46.6858 15.0488C47.2523 14.5089 47.9162 14.084 48.6775 13.7741C49.4388 13.4643 50.262 13.3094 51.1472 13.3094C51.997 13.3094 52.7583 13.4466 53.431 13.721C54.1126 13.9866 54.6925 14.3628 55.1705 14.8497C55.6573 15.3365 56.0291 15.9075 56.2858 16.5625C56.5425 17.2087 56.6709 17.9081 56.6709 18.6605C56.6709 19.5899 56.485 20.4309 56.1132 21.1833C55.7414 21.9269 55.1793 22.551 54.4269 23.0555C53.6745 23.5513 52.7229 23.8965 51.5721 24.0912L50.3505 22.1792C50.6338 22.1438 50.8728 22.1084 51.0675 22.073C51.2623 22.0287 51.457 21.9844 51.6518 21.9402C52.0767 21.834 52.4617 21.6835 52.807 21.4887C53.1522 21.294 53.4487 21.055 53.6966 20.7717C53.9445 20.4884 54.1348 20.1653 54.2676 19.8024C54.4003 19.4306 54.4667 19.0278 54.4667 18.5941C54.4667 18.0807 54.3915 17.6159 54.241 17.1999C54.0994 16.7838 53.8825 16.4253 53.5904 16.1244C53.3071 15.8234 52.9575 15.5932 52.5414 15.4339C52.1254 15.2746 51.6473 15.1949 51.1074 15.1949C50.4169 15.1949 49.8105 15.3188 49.2883 15.5667C48.7748 15.8057 48.3455 16.1199 48.0003 16.5094C47.6551 16.8901 47.3939 17.2973 47.2169 17.731C47.0487 18.1648 46.9646 18.5675 46.9646 18.9393C46.9646 19.32 47.0044 19.6431 47.0841 19.9086C47.1638 20.1653 47.2656 20.3601 47.3895 20.4929C47.5223 20.6256 47.6683 20.692 47.8277 20.692C48.0047 20.692 48.1685 20.6035 48.319 20.4265C48.4783 20.2494 48.6288 19.9883 48.7704 19.6431C48.9209 19.289 49.0758 18.8552 49.2352 18.3418C49.4388 17.7133 49.6114 17.0361 49.753 16.3103C49.8946 15.5755 49.9964 14.8585 50.0584 14.1592L52.2758 14.2256Z" fill="black"/>
<path opacity="0.75" d="M66.1241 8.38425C66.0652 8.75217 66.0211 9.19367 65.9917 9.70875C65.9622 10.2238 65.9475 10.6432 65.9475 10.967C65.9475 11.2025 65.9475 11.5925 65.9475 12.137C65.9475 12.6815 65.9475 13.3143 65.9475 14.0354C65.9475 14.7565 65.9475 15.5144 65.9475 16.3091C65.9475 17.0891 65.9475 17.847 65.9475 18.5828C65.9475 19.304 65.9475 19.9515 65.9475 20.5254C65.9475 21.0994 65.9475 21.5262 65.9475 21.8058C65.9475 22.2326 66.0579 22.5269 66.2786 22.6888C66.4994 22.8507 66.8452 22.9757 67.3161 23.064C67.6399 23.1082 67.9931 23.1376 68.3757 23.1523C68.7731 23.1671 69.1999 23.1744 69.6561 23.1744C70.23 23.1744 70.8702 23.1597 71.5766 23.1303C72.283 23.0861 72.9967 23.0346 73.7179 22.9757C74.4537 22.9022 75.138 22.8139 75.7708 22.7108C76.4183 22.6078 76.9702 22.4975 77.4264 22.3797V26.287C76.7053 26.39 75.8738 26.4709 74.932 26.5298C74.0048 26.6034 73.063 26.6549 72.1064 26.6843C71.1498 26.7138 70.2595 26.7285 69.4353 26.7285C68.6848 26.7285 67.9784 26.699 67.3161 26.6402C66.6686 26.596 66.102 26.5372 65.6164 26.4636C64.6009 26.2723 63.8062 25.8823 63.2323 25.2936C62.6583 24.6902 62.3714 23.8955 62.3714 22.9095C62.3714 22.4533 62.3714 21.8794 62.3714 21.1877C62.3714 20.496 62.3714 19.7455 62.3714 18.936C62.3714 18.1119 62.3714 17.2878 62.3714 16.4637C62.3714 15.6248 62.3714 14.8375 62.3714 14.1016C62.3714 13.3658 62.3714 12.7256 62.3714 12.1811C62.3714 11.6219 62.3714 11.2172 62.3714 10.967C62.3714 10.7315 62.364 10.4519 62.3493 10.1282C62.3346 9.8044 62.3125 9.48064 62.2831 9.15687C62.2536 8.83311 62.2242 8.57557 62.1948 8.38425H66.1241ZM64.3802 15.0509C65.116 14.889 65.8813 14.705 66.676 14.499C67.4707 14.2782 68.258 14.0501 69.038 13.8147C69.8327 13.5645 70.5759 13.3143 71.2675 13.0641C71.9739 12.8139 72.5994 12.5785 73.1439 12.3577C73.5707 12.1958 73.9975 12.0119 74.4243 11.8059C74.851 11.5998 75.3146 11.3496 75.815 11.0553L77.2278 14.4328C76.7421 14.6241 76.2418 14.8301 75.7267 15.0509C75.2116 15.2569 74.7627 15.4335 74.3801 15.5807C73.7473 15.8161 73.0188 16.0737 72.1947 16.3533C71.3853 16.6182 70.5317 16.8831 69.634 17.148C68.7363 17.4129 67.8386 17.6704 66.9409 17.9206C66.0432 18.1561 65.197 18.3621 64.4023 18.5387L64.3802 15.0509ZM82.7686 10.0399C83.2248 10.0546 83.681 10.0693 84.1372 10.084C84.5934 10.084 84.9834 10.084 85.3072 10.084C85.5721 10.084 85.9547 10.084 86.4551 10.084C86.9701 10.084 87.5588 10.084 88.221 10.084C88.8833 10.084 89.5823 10.084 90.3182 10.084C91.0687 10.084 91.8192 10.084 92.5698 10.084C93.3203 10.084 94.0267 10.084 94.689 10.084C95.3512 10.084 95.9399 10.084 96.455 10.084C96.9701 10.084 97.36 10.084 97.6249 10.084C97.9193 10.084 98.2651 10.084 98.6625 10.084C99.0745 10.084 99.5013 10.0767 99.9428 10.0619C99.9281 10.4299 99.9134 10.8272 99.8987 11.254C99.8987 11.6661 99.8987 12.0634 99.8987 12.446C99.8987 12.6668 99.8987 12.9979 99.8987 13.4394C99.8987 13.8662 99.8987 14.3739 99.8987 14.9626C99.8987 15.5512 99.8987 16.1693 99.8987 16.8169C99.8987 17.4644 99.8987 18.1193 99.8987 18.7815C99.8987 19.4438 99.8987 20.0692 99.8987 20.6579C99.8987 21.2465 99.8987 21.7616 99.8987 22.2031C99.8987 22.6446 99.8987 22.9831 99.8987 23.2186C99.8987 23.454 99.8987 23.7557 99.8987 24.1236C99.9134 24.4916 99.9207 24.8595 99.9207 25.2274C99.9207 25.5806 99.9207 25.8823 99.9207 26.1324C99.9354 26.3826 99.9428 26.5077 99.9428 26.5077H96.2342C96.2342 26.5077 96.2342 26.3238 96.2342 25.9559C96.2489 25.5879 96.2637 25.1464 96.2784 24.6314C96.2931 24.1163 96.3004 23.6306 96.3004 23.1744C96.3004 22.9537 96.3004 22.6152 96.3004 22.159C96.3004 21.7028 96.3004 21.1803 96.3004 20.5917C96.3004 19.9883 96.3004 19.3628 96.3004 18.7153C96.3004 18.0678 96.3004 17.435 96.3004 16.8169C96.3004 16.1988 96.3004 15.6395 96.3004 15.1392C96.3004 14.6388 96.3004 14.2415 96.3004 13.9471C96.3004 13.6528 96.3004 13.5056 96.3004 13.5056H86.4109C86.4109 13.5056 86.4109 13.6528 86.4109 13.9471C86.4109 14.2415 86.4109 14.6388 86.4109 15.1392C86.4109 15.6395 86.4109 16.1988 86.4109 16.8169C86.4109 17.435 86.4109 18.0678 86.4109 18.7153C86.4109 19.3628 86.4109 19.9883 86.4109 20.5917C86.4109 21.1803 86.4109 21.7028 86.4109 22.159C86.4109 22.6152 86.4109 22.9537 86.4109 23.1744C86.4109 23.4835 86.4109 23.8293 86.4109 24.2119C86.4109 24.5946 86.4109 24.9625 86.4109 25.3157C86.4256 25.6542 86.433 25.9338 86.433 26.1545C86.433 26.39 86.433 26.5077 86.433 26.5077H82.7465C82.7465 26.5077 82.7465 26.39 82.7465 26.1545C82.7612 25.9338 82.7686 25.6468 82.7686 25.2936C82.7833 24.9404 82.7906 24.5799 82.7906 24.2119C82.8053 23.8293 82.8127 23.4835 82.8127 23.1744C82.8127 22.9537 82.8127 22.6225 82.8127 22.181C82.8127 21.7396 82.8127 21.2245 82.8127 20.6358C82.8127 20.0471 82.8127 19.429 82.8127 18.7815C82.8127 18.1193 82.8127 17.4644 82.8127 16.8169C82.8127 16.1546 82.8127 15.5365 82.8127 14.9626C82.8127 14.3739 82.8127 13.8662 82.8127 13.4394C82.8127 12.9979 82.8127 12.6668 82.8127 12.446C82.8127 12.0928 82.8127 11.6881 82.8127 11.2319C82.8127 10.7757 82.798 10.3783 82.7686 10.0399ZM97.6029 21.9161V25.3378H84.5566V21.9161H97.6029ZM111.93 15.5365C112.592 15.9191 113.335 16.3754 114.159 16.9052C114.983 17.435 115.815 17.9868 116.654 18.5608C117.507 19.1347 118.302 19.6866 119.038 20.2164C119.788 20.7462 120.406 21.2098 120.892 21.6071L118.331 24.6534C117.86 24.2119 117.257 23.6969 116.521 23.1082C115.8 22.5048 115.013 21.8867 114.159 21.2539C113.32 20.6211 112.496 20.0177 111.687 19.4438C110.877 18.8698 110.164 18.3842 109.546 17.9868L111.93 15.5365ZM122.481 11.9383C122.334 12.1738 122.18 12.4534 122.018 12.7772C121.871 13.0862 121.738 13.41 121.621 13.7484C121.4 14.3813 121.098 15.1024 120.715 15.9118C120.348 16.7065 119.906 17.5306 119.391 18.3842C118.876 19.2377 118.287 20.0839 117.625 20.9228C116.565 22.2473 115.3 23.5055 113.828 24.6976C112.371 25.8896 110.583 26.8977 108.464 27.7218L105.351 25.0287C106.985 24.5136 108.368 23.9323 109.501 23.2848C110.635 22.6225 111.599 21.9309 112.393 21.2098C113.203 20.4886 113.909 19.7749 114.512 19.0685C114.969 18.5387 115.41 17.9427 115.837 17.2804C116.264 16.6182 116.632 15.9633 116.941 15.3158C117.264 14.6535 117.485 14.0722 117.603 13.5718H110.539L111.731 10.5476H117.603C117.971 10.5476 118.353 10.5255 118.751 10.4814C119.163 10.4225 119.509 10.3489 119.788 10.2606L122.481 11.9383ZM115.263 8.4284C114.954 8.8699 114.652 9.34083 114.358 9.84119C114.064 10.3416 113.843 10.7168 113.696 10.967C113.166 11.8942 112.496 12.8655 111.687 13.8809C110.877 14.8963 109.994 15.8676 109.038 16.7948C108.081 17.7219 107.11 18.5313 106.124 19.223L103.232 16.9935C104.542 16.184 105.638 15.3526 106.521 14.499C107.419 13.6307 108.162 12.7992 108.751 12.0045C109.354 11.1951 109.847 10.4814 110.23 9.86327C110.436 9.55422 110.649 9.14952 110.87 8.64915C111.106 8.13407 111.282 7.66314 111.4 7.23636L115.263 8.4284Z" fill="black"/>
</svg>
