<svg width="113" height="850" viewBox="0 0 113 850" fill="none" xmlns="http://www.w3.org/2000/svg">
<g clip-path="url(#clip0_1_61)">
<path d="M111.599 776.456V847.544C111.599 847.544 66.7287 779.139 0.523756 790.162L0.523756 755.582L111.599 776.456Z" stroke="black" stroke-width="1.04788" stroke-miterlimit="10"/>
<path d="M0.523756 747.074L0.523756 675.986C0.523756 675.986 45.3939 744.413 111.599 733.347V767.927L0.523756 747.074Z" stroke="black" stroke-width="1.04788" stroke-miterlimit="10"/>
<path d="M11.1502 522.326L10.3329 523.185L2.6205 530.898C2.6205 530.898 2.45284 531.086 2.36901 531.17C2.3271 531.212 2.28518 531.233 2.26422 531.275C2.03369 531.505 1.82411 531.757 1.6355 532.029C1.57262 532.134 1.50975 532.26 1.42592 532.365C1.30018 532.574 1.17443 532.784 1.06964 533.035C0.964855 533.287 0.881025 533.559 0.818152 533.832C0.776237 533.957 0.734322 534.083 0.692407 534.23C0.608577 534.649 0.545704 535.068 0.545704 535.529L0.545704 553.49C0.545704 556.864 3.29114 559.609 6.66531 559.609H35.3352C36.8651 559.609 38.1016 560.846 38.1016 562.397L38.1016 585.806H17.5213C14.734 585.806 12.764 587.902 11.1502 589.6L10.3329 590.438L2.6205 598.129C2.6205 598.129 2.45284 598.339 2.34805 598.423C2.34805 598.423 2.34805 598.444 2.3271 598.465C2.09656 598.716 1.84507 598.989 1.65645 599.282C1.57262 599.408 1.50975 599.534 1.42592 599.659C1.32113 599.869 1.17443 600.057 1.0906 600.288C0.964855 600.56 0.881025 600.854 0.797195 601.126C0.776237 601.231 0.713364 601.357 0.692407 601.462C0.608577 601.881 0.545704 602.3 0.545704 602.761L0.545704 620.722C0.545704 624.096 3.29114 626.841 6.66531 626.841H94.7709C95.1691 626.841 95.5673 626.799 95.9445 626.736C96.1541 626.695 96.3427 626.632 96.5313 626.569C96.699 626.506 96.8666 626.485 97.0343 626.401C97.2858 626.296 97.5163 626.171 97.7678 626.045C97.8516 625.982 97.9564 625.94 98.0403 625.898C98.3127 625.731 98.5432 625.521 98.7947 625.332C98.8366 625.29 98.8786 625.269 98.9205 625.228L107.387 618.27C109.504 616.53 111.746 613.009 111.746 609.887V591.926C111.746 588.552 109.001 585.806 105.627 585.806H74.8612C73.3523 585.806 72.0948 584.528 72.0948 583.019V559.609H94.7709C96.0493 559.609 97.2439 559.211 98.2498 558.52C98.3337 558.457 98.3965 558.373 98.4804 558.331C98.7109 558.142 98.9414 557.954 99.172 557.744C99.172 557.723 99.2139 557.723 99.2348 557.702L106.968 550.032L107.786 549.235C109.567 547.538 111.788 545.421 111.788 542.634V524.673C111.788 521.299 109.043 518.554 105.669 518.554H17.5004C14.734 518.554 12.743 520.649 11.1502 522.347M8.86585 596.662L12.7011 592.806L13.5813 591.884C14.8597 590.543 16.18 589.139 17.5213 589.139H38.1016V593.875C38.1016 595.405 36.8651 596.662 35.3352 596.662H8.86585ZM68.7206 559.609V583.019C68.7206 586.393 71.4661 589.139 74.8402 589.139H105.606C107.136 589.139 108.372 590.375 108.372 591.905V609.866C108.372 611.626 106.947 614.267 105.25 615.671L100.87 619.297V602.782C100.87 599.408 98.1241 596.662 94.7499 596.662H63.9842C62.4543 596.662 61.2178 595.405 61.2178 593.875L61.2178 562.397C61.2178 560.867 62.4543 559.609 63.9842 559.609H68.7206ZM105.606 521.886C107.136 521.886 108.372 523.122 108.372 524.673V542.634C108.372 543.996 106.801 545.484 105.417 546.804L104.537 547.643L100.849 551.31V535.508C100.849 532.134 98.1031 529.389 94.729 529.389H8.86585L12.7011 525.511L13.5813 524.589C14.8597 523.248 16.18 521.844 17.5004 521.844H105.606V521.886Z" stroke="black" stroke-width="1.04788" stroke-miterlimit="10"/>
<path d="M11.1283 468.778L10.3109 469.638L2.59855 477.35C2.59855 477.35 2.43089 477.539 2.34706 477.623C2.30515 477.664 2.28419 477.706 2.24228 477.748C2.01174 477.979 1.80217 478.23 1.61355 478.503C1.55068 478.608 1.4878 478.733 1.40397 478.859C1.27823 479.069 1.15248 479.278 1.04769 479.53C0.942907 479.781 0.859077 480.054 0.796204 480.305C0.754289 480.431 0.712374 480.557 0.670459 480.703C0.586629 481.122 0.523756 481.542 0.523756 482.003L0.523756 499.963C0.523756 503.337 3.2692 506.083 6.64336 506.083H94.7489C96.4884 506.083 98.0602 505.349 99.171 504.176L106.904 496.505L107.743 495.688C109.524 493.99 111.725 491.895 111.725 489.107V471.147C111.725 467.772 108.979 465.027 105.605 465.027H17.4994C14.712 465.027 12.742 467.123 11.1283 468.799M105.605 468.338C107.135 468.338 108.371 469.575 108.371 471.126V489.086C108.371 490.428 106.8 491.937 105.437 493.236L104.536 494.116L100.848 497.784V481.982C100.848 478.608 98.1021 475.862 94.728 475.862H8.86486L12.7001 472.006L13.5803 471.105C14.8587 469.763 16.179 468.359 17.5203 468.359H105.626L105.605 468.338Z" stroke="black" stroke-width="1.04788" stroke-miterlimit="10"/>
<path d="M28.5439 113.15H14.5443C11.6102 113.15 9.97556 114.785 8.40374 116.357L7.94268 116.818L2.51467 123.294C1.2153 124.866 0.565619 126.899 0.565619 129.351L0.565619 213.097C0.565619 216.471 3.31106 219.217 6.68522 219.217H21.4603C21.8585 219.196 23.6818 218.965 25.044 218.001C26.6787 216.848 28.4601 215.067 29.9062 213.663L31.2684 212.342C33.3013 210.477 34.6426 209.031 34.6426 205.699V187.005H94.7488C95.1051 187.005 95.4405 186.963 95.7758 186.9C98.1021 186.669 100.282 185.852 101.623 184.658L108.099 178.454C110.216 176.337 111.745 172.796 111.745 170.008V152.069C111.745 148.673 109 145.928 105.626 145.928H34.6426V119.291C34.6426 115.917 31.8972 113.171 28.5439 113.171M31.3103 186.963L31.3103 205.657C31.3103 207.564 30.8493 208.172 29.026 209.828L27.5589 211.232C26.6578 212.112 25.547 213.223 24.4782 214.145C24.5411 213.789 24.583 213.432 24.583 213.076L24.583 186.963H31.3103ZM28.5439 116.483C30.0738 116.483 31.3103 117.719 31.3103 119.249L31.3103 149.218H105.605C107.135 149.218 108.371 150.476 108.371 152.006V169.945C108.371 171.873 107.198 174.535 105.731 176.002L100.847 180.676V162.841C100.847 159.467 98.1021 156.721 94.7279 156.721H24.583L24.583 129.309C24.583 125.934 21.8375 123.168 18.4424 123.168H6.93671C8.44566 121.366 10.3528 119.123 10.4157 119.039C10.4995 118.956 10.7719 118.662 10.7719 118.662C12.3018 117.132 13.0354 116.441 14.5233 116.441H28.523L28.5439 116.483Z" stroke="black" stroke-width="1.04788" stroke-miterlimit="10"/>
<path d="M7.92096 237.807L5.90903 239.861L6.05573 239.819C6.05573 239.819 5.99286 239.861 5.9719 239.882C5.65754 240.134 5.36414 240.385 5.09169 240.657C5.00786 240.72 4.92403 240.804 4.86115 240.867C4.54679 241.181 4.25338 241.517 3.93902 241.873C3.77136 242.083 3.6037 242.313 3.43604 242.544C3.33125 242.69 3.22646 242.837 3.12168 242.984C2.95402 243.235 2.80731 243.487 2.66061 243.738C2.57678 243.885 2.49295 244.032 2.40912 244.178C2.26242 244.43 2.15763 244.681 2.03188 244.954C1.96901 245.121 1.88518 245.31 1.82231 245.478C1.71752 245.729 1.63369 245.981 1.54986 246.232C1.48699 246.442 1.42412 246.672 1.36124 246.882C1.29837 247.112 1.2355 247.343 1.19358 247.573C1.13071 247.846 1.08879 248.139 1.02592 248.412C1.02592 248.6 0.963049 248.768 0.942091 248.978C0.900176 249.46 0.858261 249.942 0.858261 250.445L0.858261 319.961C0.858261 327.422 6.93595 333.499 14.3968 333.499H87.9998C88.4818 333.499 88.9638 333.478 89.4458 333.416C89.5087 333.416 89.5925 333.374 89.6764 333.374C90.0955 333.332 90.4937 333.248 90.9129 333.164C90.9338 333.164 90.9757 333.164 90.9967 333.164C92.1284 332.892 93.1972 332.514 94.1822 331.991C102.712 328.218 111.808 317.32 111.808 305.815V246.861C111.808 239.714 104.263 226.637 91.9398 226.637H27.7049C18.7141 226.637 12.9717 232.568 7.92096 237.807ZM92.0027 229.969C102.083 229.969 108.517 241.056 108.517 246.861V305.815C108.517 311.871 105.457 317.949 101.329 322.518C101.496 321.7 101.58 320.82 101.58 319.94V250.424C101.58 242.963 95.5026 236.885 88.0417 236.885H14.4178C14.1034 236.885 13.7891 236.927 13.4747 236.948C17.4147 233.155 21.7529 229.969 27.7049 229.969H91.9817H92.0027ZM74.1259 267.504C75.6558 267.504 76.8923 268.762 76.8923 270.291V292.611H38.1627C36.6328 292.611 35.3963 291.354 35.3963 289.845L35.3963 267.504H74.1259ZM27.8725 302.88C26.3426 302.88 25.1061 301.644 25.1061 300.114V270.27C25.1061 268.741 26.3426 267.483 27.8725 267.483H32.0431V289.824C32.0431 293.198 34.7885 295.943 38.1627 295.943H76.8923V300.114C76.8923 301.623 75.6558 302.88 74.1259 302.88H27.8725Z" stroke="black" stroke-width="1.04788" stroke-miterlimit="10"/>
<path d="M104.641 343.138C104.641 343.138 81.9646 359.338 77.9198 362.23C77.3959 357.577 75.7193 353.721 72.8062 350.808C66.4351 344.479 56.0192 344.06 50.1091 344.06C49.6481 344.06 47.8248 344.06 47.8248 344.06H26.4481C20.6638 344.06 16.4094 346.952 4.757 358.793C4.02349 359.505 3.37381 360.302 2.82891 361.182C2.66125 361.392 2.55646 361.622 2.40976 361.853C2.36784 361.937 2.32593 362.02 2.26306 362.083C1.1523 364.053 0.502621 366.338 0.502621 368.79L0.502621 448.135C0.502621 450.252 1.57146 452.117 3.20615 453.207C4.17019 453.877 5.36477 454.255 6.62223 454.255H94.7278C96.0271 454.255 97.2008 453.856 98.2067 453.165C98.2277 453.165 98.2486 453.123 98.2696 453.102C98.563 452.892 98.8564 452.662 99.1079 452.389L99.1498 452.347L106.883 444.656L107.721 443.839C109.503 442.141 111.703 440.045 111.703 437.258V419.297C111.703 415.923 108.958 413.178 105.584 413.178H79.0306V402.343C79.4288 402.07 81.0844 400.897 83.2011 399.367C84.8149 398.214 86.4286 397.082 87.9166 396.035C88.671 395.49 89.3836 394.987 90.0962 394.484C91.0602 393.792 91.9614 393.163 92.7368 392.618C93.0302 392.409 93.3236 392.199 93.5751 392.011C94.3296 391.466 94.9164 391.068 95.2727 390.816C95.4403 390.69 95.5451 390.627 95.608 390.586C95.6709 390.544 95.6918 390.523 95.6918 390.523C96.5092 389.957 97.2636 389.202 97.9552 388.364L106.862 380.002C106.904 379.96 107.742 379.143 107.742 379.143C109.524 377.466 111.724 375.349 111.724 372.562V345.757C111.724 344.102 111.033 342.802 109.817 342.195C108.392 341.461 106.506 341.796 104.62 343.138M108.287 345.171C108.287 345.171 108.371 345.359 108.371 345.757V372.562C108.371 373.903 106.799 375.412 105.437 376.712L104.536 377.592L100.868 381.071V361.727C100.868 360.071 100.177 358.772 98.9612 358.143C98.4582 357.871 97.8924 357.745 97.3056 357.745C96.2158 357.745 95.0212 358.185 93.7847 359.065C93.7847 359.065 72.8271 373.945 68.5099 377.026V368.79C68.5099 361.329 62.4322 355.251 54.9503 355.251H13.8945C13.664 355.251 13.4125 355.272 13.1819 355.293C20.0979 348.733 22.9901 347.434 26.469 347.434H48.8307C53.9444 347.392 64.5699 347.35 70.4589 353.197C73.3511 356.068 74.8181 360.155 74.8181 365.332V368.58L106.611 345.862C107.617 345.129 108.224 345.129 108.329 345.171M75.7193 416.531H105.605C107.135 416.531 108.371 417.788 108.371 419.297V437.258C108.371 438.599 106.799 440.108 105.437 441.408L104.536 442.288L100.868 445.955V429.231C100.868 425.857 98.1229 423.112 94.7487 423.112C94.7487 423.112 71.4649 423.091 68.5099 423.07V409.825C68.929 409.51 71.905 407.414 75.7193 404.69V416.489V416.531ZM44.0315 385.116C44.744 385.116 45.3099 385.702 45.3099 386.415L45.3099 413.178H34.8101L34.8101 385.116H44.0315ZM31.4569 385.116V416.531H45.3099V421.833C45.3099 422.546 44.744 423.133 44.0315 423.133H25.8822C25.1906 423.133 24.5828 422.546 24.5828 421.833V386.436C24.5828 385.723 25.1697 385.137 25.8822 385.137H31.4569V385.116Z" stroke="black" stroke-width="1.04788" stroke-miterlimit="10"/>
<path d="M104.997 0.963511L17.3527 35.1244C15.194 35.9627 3.58356 45.4145 2.15845 49.7527C1.15248 51.1149 0.523756 52.7287 0.523756 54.2795L0.523756 75.4048C0.523756 78.4646 2.95483 81.7968 6.03559 82.9704L94.1412 116.188L94.8956 116.419C98.1231 117.425 100.303 116.251 101.476 115.622L101.77 115.476C103.551 114.533 107.365 111.452 109.042 109.607C110.97 107.491 111.766 105.688 111.766 103.425V88.7756C111.766 85.632 109.335 82.2369 106.234 81.0424C106.234 81.0424 100.345 78.6322 98.7309 77.9825V41.2649C99.7368 40.3847 107.303 33.8459 107.303 33.8459C109.419 32.4208 111.766 28.9838 111.766 25.8611V5.21789C111.766 3.56225 111.075 2.11616 109.838 1.27786C109.084 0.753923 108.183 0.502443 107.24 0.502443C106.527 0.502443 105.773 0.649171 105.018 0.921619M107.931 4.04427C108.329 4.31672 108.392 4.8197 108.392 5.21789V25.8611C108.392 27.7473 106.737 30.1993 105.249 31.1843L100.869 34.9776V17.6667C100.869 16.053 100.177 14.6488 99.0033 13.8315C97.7039 12.9303 95.9435 12.8045 94.1621 13.4752L9.97561 45.2259C13.266 42.0822 17.2479 38.771 18.5682 38.247L106.213 4.06525C106.904 3.7928 107.533 3.7928 107.931 4.06525M95.3567 80.225L104.976 84.165C106.8 84.8776 108.392 87.0362 108.392 88.7966V103.446C108.392 104.85 107.91 105.877 106.548 107.386C105.249 108.79 102.419 111.116 100.827 112.143C100.827 112.08 100.827 112.039 100.827 111.976V94.5181C100.827 91.4373 98.3955 88.105 95.2938 86.9523C95.2938 86.9523 89.0275 84.5842 87.3509 83.9554V45.7289C89.0275 45.1002 95.2938 42.732 95.2938 42.732C95.2938 42.732 95.2938 42.732 95.3148 42.732V80.246L95.3567 80.225ZM65.1149 75.5514C61.6779 74.2521 42.6904 67.0846 36.7175 64.8422C38.2054 64.2763 40.5527 63.3961 43.2353 62.3692L65.1149 70.857V75.5514ZM65.1149 67.2523C62.118 66.0786 52.8548 62.4949 47.9297 60.5878C55.1182 57.8842 63.0192 54.9083 65.1149 54.1119V67.2523Z" stroke="black" stroke-width="1.04788" stroke-miterlimit="10"/>
</g>
<defs>
<clipPath id="clip0_1_61">
<rect width="849.305" height="112.374" fill="white" transform="matrix(0 -1 1 0 0 849.305)"/>
</clipPath>
</defs>
</svg>
