<svg width="93" height="18" viewBox="0 0 93 18" fill="none" xmlns="http://www.w3.org/2000/svg">
<path d="M15.6018 1.90093L15.4756 1.77417L14.3427 0.578094C14.3427 0.578094 14.315 0.552093 14.3027 0.539092C14.2966 0.532592 14.2935 0.526091 14.2873 0.522841C14.2535 0.487089 14.2165 0.454587 14.1765 0.425335C14.1611 0.415584 14.1426 0.405834 14.1272 0.392833C14.0965 0.373332 14.0657 0.353831 14.0287 0.33758C13.9918 0.321329 13.9518 0.308328 13.9118 0.298577C13.8933 0.292077 13.8748 0.285577 13.8533 0.279076C13.7917 0.266075 13.7301 0.256325 13.6624 0.256325H11.0243C10.5286 0.256325 10.1254 0.682101 10.1254 1.20538V5.65165C10.1254 5.88892 9.94375 6.08068 9.71595 6.08068H6.27743V2.88899C6.27743 2.45671 5.96959 2.15119 5.72024 1.90093L5.59711 1.77417L4.46735 0.578094C4.46735 0.578094 4.43657 0.552093 4.42425 0.535842C4.42425 0.535842 4.42118 0.535842 4.4181 0.532592C4.38116 0.496839 4.34114 0.457837 4.29804 0.428585C4.27957 0.415584 4.2611 0.405834 4.24263 0.392833C4.21185 0.376582 4.18414 0.353831 4.15028 0.34083C4.11026 0.321329 4.06716 0.308328 4.02715 0.295327C4.01175 0.292077 3.99329 0.282326 3.97789 0.279076C3.91633 0.266075 3.85476 0.256325 3.78703 0.256325H1.14888C0.653265 0.256325 0.25 0.682101 0.25 1.20538V14.8692C0.25 14.931 0.256155 14.9927 0.26539 15.0512C0.271547 15.0837 0.280783 15.113 0.290018 15.1422C0.299253 15.1682 0.302332 15.1942 0.314645 15.2202C0.330037 15.2592 0.348507 15.295 0.366977 15.334C0.376212 15.347 0.382369 15.3632 0.388525 15.3762C0.413152 15.4185 0.443937 15.4543 0.471642 15.4933C0.477799 15.4998 0.480876 15.5063 0.487033 15.5128L1.50905 16.8258C1.76455 17.1541 2.28172 17.5019 2.74039 17.5019H5.37855C5.87416 17.5019 6.27743 17.0761 6.27743 16.5528V11.7815C6.27743 11.5475 6.46521 11.3525 6.68685 11.3525H10.1254V14.8692C10.1254 15.0675 10.1839 15.2527 10.2855 15.4087C10.2947 15.4217 10.307 15.4315 10.3132 15.4445C10.3409 15.4803 10.3686 15.516 10.3993 15.5518C10.4024 15.5518 10.4024 15.5583 10.4055 15.5615L11.5322 16.7608L11.6492 16.8876C11.8985 17.1639 12.2094 17.5084 12.6188 17.5084H15.257C15.7526 17.5084 16.1559 17.0826 16.1559 16.5593V2.88574C16.1559 2.45671 15.848 2.14794 15.5987 1.90093M4.68284 1.54665L5.24926 2.14144L5.3847 2.27795C5.58172 2.47621 5.78797 2.68097 5.78797 2.88899V6.08068H5.09226C4.86754 6.08068 4.68284 5.88892 4.68284 5.65165V1.54665ZM10.1254 10.8292H6.68685C6.19123 10.8292 5.78797 11.255 5.78797 11.7783V16.5496C5.78797 16.7868 5.60635 16.9786 5.38162 16.9786H2.74347C2.48489 16.9786 2.09702 16.7576 1.89077 16.4943L1.35821 15.815H3.78396C4.27957 15.815 4.68284 15.3892 4.68284 14.866V10.0947C4.68284 9.85741 4.86754 9.66565 5.09226 9.66565H9.71595C9.94067 9.66565 10.1254 9.85741 10.1254 10.0947V10.8292ZM15.6664 16.5496C15.6664 16.7868 15.4848 16.9786 15.257 16.9786H12.6188C12.4188 16.9786 12.2002 16.7348 12.0063 16.5203L11.8831 16.3838L11.3444 15.8118H13.6655C14.1611 15.8118 14.5644 15.386 14.5644 14.8627V1.54665L15.1339 2.14144L15.2693 2.27795C15.4663 2.47621 15.6726 2.68097 15.6726 2.88574V16.5496H15.6664Z" stroke="black" stroke-width="0.5" stroke-miterlimit="10"/>
<path d="M23.467 1.89776L23.3408 1.771L22.208 0.574928C22.208 0.574928 22.1803 0.548927 22.168 0.535926C22.1618 0.529425 22.1556 0.526175 22.1495 0.519675C22.1156 0.483923 22.0787 0.451421 22.0387 0.422169C22.0233 0.412418 22.0048 0.402668 21.9863 0.389667C21.9556 0.370166 21.9248 0.350665 21.8878 0.334414C21.8509 0.318163 21.8109 0.305162 21.7739 0.295411C21.7555 0.288911 21.737 0.28241 21.7154 0.27591C21.6539 0.262909 21.5923 0.253159 21.5246 0.253159H18.8864C18.3908 0.253159 17.9875 0.678935 17.9875 1.20222V14.866C17.9875 15.1358 18.0953 15.3796 18.2677 15.5518L19.3944 16.7512L19.5144 16.8812C19.7638 17.1574 20.0716 17.4987 20.481 17.4987H23.1192C23.6148 17.4987 24.0181 17.0729 24.0181 16.5497V2.88582C24.0181 2.45354 23.7102 2.14802 23.4639 1.89776M23.5317 16.5497C23.5317 16.7869 23.35 16.9787 23.1223 16.9787H20.4841C20.2871 16.9787 20.0654 16.7349 19.8746 16.5237L19.7453 16.3839L19.2066 15.8119H21.5277C22.0233 15.8119 22.4265 15.3861 22.4265 14.8628V1.54674L22.993 2.14152L23.1253 2.27803C23.3223 2.47629 23.5286 2.68106 23.5286 2.88907V16.5529L23.5317 16.5497Z" stroke="black" stroke-width="0.5" stroke-miterlimit="10"/>
<path d="M75.7035 4.59876V2.42763C75.7035 1.9726 75.4634 1.71908 75.2325 1.47532L75.1648 1.40381L74.2136 0.562011C73.9827 0.360499 73.6841 0.259743 73.3239 0.259743H61.0228C60.5272 0.259743 60.1239 0.685519 60.1239 1.2088V3.50019C60.127 3.56194 60.1609 3.84471 60.3025 4.05597C60.4718 4.30949 60.7334 4.58576 60.9397 4.81002L61.1336 5.02128C61.4076 5.33655 61.62 5.54457 62.1095 5.54457H64.8554V14.8661C64.8554 14.9214 64.8615 14.9734 64.8708 15.0254C64.9046 15.3862 65.0247 15.7242 65.2002 15.9322L66.1113 16.9365C66.4223 17.2648 66.9425 17.502 67.3519 17.502H69.987C70.4857 17.502 70.889 17.0763 70.889 16.553V5.54457H74.8015C75.2972 5.54457 75.7004 5.11879 75.7004 4.59876M64.8615 5.02778H62.1156C61.8355 5.02778 61.7462 4.95628 61.503 4.67351L61.2968 4.446C61.1675 4.30624 61.0043 4.13398 60.8689 3.96822C60.9212 3.97797 60.9736 3.98447 61.0259 3.98447H64.8615V5.02778ZM75.2141 4.59876C75.2141 4.83602 75.0324 5.02778 74.8077 5.02778H70.4057V16.5497C70.4057 16.787 70.221 16.9788 69.9962 16.9788H67.3612C67.078 16.9788 66.687 16.7968 66.4715 16.5692L65.785 15.8119H68.4047C68.9003 15.8119 69.3036 15.3862 69.3036 14.8629V3.98447H73.3301C73.8257 3.98447 74.2321 3.55869 74.2321 3.03216V1.2478C74.4968 1.48182 74.8262 1.77759 74.8385 1.78734C74.8508 1.80034 74.8939 1.84259 74.8939 1.84259C75.1186 2.07985 75.2202 2.19361 75.2202 2.42437V4.59551L75.2141 4.59876Z" stroke="black" stroke-width="0.5" stroke-miterlimit="10"/>
<path d="M57.3936 1.40063L57.0919 1.08861L57.098 1.11136C57.098 1.11136 57.0919 1.10161 57.0888 1.09836C57.0519 1.04961 57.0149 1.00411 56.9749 0.961853C56.9657 0.948852 56.9534 0.935852 56.9441 0.926101C56.8979 0.877348 56.8487 0.831845 56.7964 0.783092C56.7656 0.757091 56.7317 0.731089 56.6978 0.705087C56.6763 0.688836 56.6548 0.672586 56.6332 0.656335C56.5963 0.630333 56.5593 0.607582 56.5224 0.58483C56.5008 0.571829 56.4793 0.558829 56.4577 0.545828C56.4208 0.523076 56.3839 0.506825 56.3438 0.487324C56.3192 0.477574 56.2915 0.464573 56.2669 0.454822C56.2299 0.438571 56.193 0.42557 56.1561 0.41257C56.1253 0.402819 56.0914 0.393068 56.0606 0.383318C56.0268 0.373567 55.9929 0.363817 55.959 0.357316C55.919 0.347566 55.8759 0.341065 55.8359 0.331315C55.8082 0.331315 55.7836 0.321564 55.7528 0.318314C55.682 0.311814 55.6112 0.305313 55.5373 0.305313H45.3264C44.2305 0.305313 43.3378 1.24787 43.3378 2.40494V13.8196C43.3378 13.8944 43.3408 13.9691 43.3501 14.0439C43.3501 14.0537 43.3562 14.0667 43.3562 14.0797C43.3624 14.1447 43.3747 14.2064 43.387 14.2714C43.387 14.2747 43.387 14.2812 43.387 14.2844C43.427 14.4599 43.4825 14.6257 43.5594 14.7784C44.1135 16.1013 45.7143 17.5119 47.4043 17.5119H56.0637C57.1134 17.5119 59.0343 16.3418 59.0343 14.4307V4.46882C59.0343 3.07448 58.1632 2.18393 57.3936 1.40063ZM58.5449 14.4404C58.5449 16.0038 56.9164 17.0016 56.0637 17.0016H47.4043C46.5146 17.0016 45.6219 16.5271 44.9508 15.8868C45.0709 15.9128 45.2002 15.9258 45.3295 15.9258H55.5404C56.6363 15.9258 57.529 14.9832 57.529 13.8261V2.40819C57.529 2.35944 57.5229 2.31069 57.5198 2.26193C58.077 2.87297 58.5449 3.54576 58.5449 4.46882V14.4372V14.4404ZM53.0315 11.668C53.0315 11.9053 52.8468 12.097 52.6221 12.097H49.3437V6.09067C49.3437 5.8534 49.5284 5.66164 49.75 5.66164H53.0315V11.668ZM47.8353 4.49482C47.8353 4.25755 48.0169 4.06579 48.2416 4.06579H52.6252C52.8499 4.06579 53.0346 4.25755 53.0346 4.49482V5.14161H49.7531C49.2575 5.14161 48.8542 5.56738 48.8542 6.09067V12.097H48.2416C48.02 12.097 47.8353 11.9053 47.8353 11.668V4.49482Z" stroke="black" stroke-width="0.5" stroke-miterlimit="10"/>
<path d="M41.9217 16.4002C41.9217 16.4002 39.5421 12.8835 39.1173 12.2562C39.8007 12.175 40.3671 11.915 40.795 11.4632C41.7246 10.4751 41.7862 8.85977 41.7862 7.94322C41.7862 7.87171 41.7862 7.58895 41.7862 7.58895V4.27375C41.7862 3.37669 41.3614 2.7169 39.6221 0.90979C39.5175 0.796033 39.4005 0.695277 39.2712 0.610772C39.2404 0.58477 39.2066 0.568519 39.1727 0.545768C39.1604 0.539268 39.1481 0.532767 39.1388 0.523017C38.8495 0.350756 38.5139 0.25 38.1538 0.25H26.4991C26.1882 0.25 25.9142 0.41576 25.7541 0.669276C25.6556 0.818785 25.6002 1.00405 25.6002 1.19906V14.8629C25.6002 15.0644 25.6587 15.2464 25.7603 15.4024C25.7603 15.4057 25.7664 15.4089 25.7695 15.4122C25.8003 15.4577 25.8342 15.5032 25.8742 15.5422L25.8803 15.5487L27.0101 16.748L27.1301 16.878C27.3795 17.1543 27.6873 17.4956 28.0968 17.4956H30.7349C31.2305 17.4956 31.6338 17.0698 31.6338 16.5465V12.4285H33.2253C33.2653 12.4902 33.4377 12.747 33.6624 13.0753C33.8317 13.3255 33.998 13.5758 34.1519 13.8066C34.2319 13.9236 34.3058 14.0341 34.3797 14.1446C34.4813 14.2941 34.5736 14.4339 34.6537 14.5541C34.6844 14.5996 34.7152 14.6451 34.7429 14.6841C34.823 14.8011 34.8815 14.8921 34.9184 14.9474C34.9369 14.9734 34.9461 14.9896 34.9523 14.9994C34.9584 15.0091 34.9615 15.0124 34.9615 15.0124C35.0446 15.1392 35.1554 15.2562 35.2786 15.3634L36.5068 16.7448C36.513 16.7513 36.633 16.8813 36.633 16.8813C36.8793 17.1575 37.1902 17.4988 37.5996 17.4988H41.5369C41.7801 17.4988 41.9709 17.3915 42.0602 17.203C42.1679 16.982 42.1187 16.6895 41.9217 16.397M41.6231 16.9658C41.6231 16.9658 41.5954 16.9788 41.5369 16.9788H37.5996C37.4026 16.9788 37.181 16.735 36.9901 16.5237L36.8608 16.384L36.3498 15.8152H39.1912C39.4343 15.8152 39.6252 15.7079 39.7176 15.5194C39.7576 15.4414 39.776 15.3537 39.776 15.2627C39.776 15.0937 39.7114 14.9084 39.5821 14.7166C39.5821 14.7166 37.3965 11.4664 36.944 10.7969H38.1538C39.2496 10.7969 40.1424 9.85434 40.1424 8.69401V2.32688C40.1424 2.29112 40.1393 2.25212 40.1362 2.21637C41.0997 3.28894 41.2906 3.73746 41.2906 4.277V7.74496C41.2968 8.538 41.3029 10.1859 40.4441 11.0992C40.0223 11.5477 39.422 11.7752 38.6617 11.7752H38.1845L41.5215 16.7058C41.6292 16.8618 41.6292 16.956 41.6231 16.9723M31.1413 11.915V16.5497C31.1413 16.787 30.9565 16.9788 30.7349 16.9788H28.0968C27.8997 16.9788 27.6781 16.735 27.4872 16.5237L27.3579 16.384L26.8192 15.8152H29.2758C29.7714 15.8152 30.1746 15.3894 30.1746 14.8661C30.1746 14.8661 30.1777 11.2552 30.1808 10.7969H32.1263C32.1725 10.8619 32.4803 11.3234 32.8805 11.915H31.1474H31.1413ZM35.7557 7.00066C35.7557 7.11117 35.6695 7.19892 35.5649 7.19892H31.6338V5.57057H35.7557V7.00066ZM35.7557 5.05054H31.1413V7.19892H30.3624C30.2578 7.19892 30.1716 7.11117 30.1716 7.00066V4.18599C30.1716 4.07873 30.2578 3.98448 30.3624 3.98448H35.5618C35.6664 3.98448 35.7526 4.07548 35.7526 4.18599V5.05054H35.7557Z" stroke="black" stroke-width="0.5" stroke-miterlimit="10"/>
<path d="M92.1822 16.4554L87.1645 2.86307C87.0413 2.5283 85.653 0.727687 85.0158 0.506674C84.8157 0.350665 84.5786 0.253159 84.3508 0.253159H81.2478C80.7984 0.253159 80.3089 0.630182 80.1366 1.10796L75.2574 14.7718L75.2235 14.8888C75.0757 15.3893 75.2481 15.7274 75.3405 15.9094L75.362 15.9549C75.5005 16.2311 75.9531 16.8227 76.224 17.0827C76.5349 17.3817 76.7996 17.5052 77.1321 17.5052H79.2839C79.7456 17.5052 80.2443 17.1282 80.4198 16.6472C80.4198 16.6472 80.7738 15.7339 80.8692 15.4836H86.2625C86.3918 15.6396 87.3522 16.8129 87.3522 16.8129C87.5616 17.1412 88.0664 17.5052 88.5251 17.5052H91.5573C91.8005 17.5052 92.0129 17.398 92.136 17.2062C92.213 17.0892 92.2499 16.9494 92.2499 16.8032C92.2499 16.6927 92.2284 16.5757 92.1883 16.4586M91.7297 16.9104C91.6896 16.9722 91.6158 16.9819 91.5573 16.9819H88.5251C88.248 16.9819 87.8879 16.7252 87.7432 16.4944L87.186 15.8151H89.7287C89.9658 15.8151 90.172 15.7079 90.2921 15.5258C90.4244 15.3243 90.4429 15.0513 90.3444 14.775L85.6807 1.719C86.1424 2.22928 86.6288 2.84682 86.7058 3.05158L91.7266 16.6439C91.7666 16.7512 91.7666 16.8487 91.7266 16.9104M80.5398 14.9603L79.9611 16.4521C79.8564 16.7349 79.5394 16.9819 79.2808 16.9819H77.129C76.9228 16.9819 76.7719 16.9072 76.5503 16.6959C76.344 16.4944 76.0023 16.0556 75.8515 15.8086C75.8607 15.8086 75.8669 15.8086 75.8761 15.8086H78.4404C78.8929 15.8086 79.3824 15.4316 79.5517 14.9506C79.5517 14.9506 79.8995 13.9787 79.9919 13.7187H85.6068C85.6992 13.9787 86.047 14.9506 86.047 14.9506C86.047 14.9506 86.047 14.9506 86.047 14.9538H80.5367L80.5398 14.9603ZM81.2263 10.2703C81.4172 9.73724 82.47 6.79256 82.7993 5.86625C82.8825 6.09701 83.0117 6.46104 83.1626 6.87706L81.9159 10.2703H81.2263ZM82.4453 10.2703C82.6177 9.80549 83.1441 8.3689 83.4242 7.60511C83.8214 8.71992 84.2585 9.94525 84.3755 10.2703H82.4453Z" stroke="black" stroke-width="0.5" stroke-miterlimit="10"/>
</svg>
