<?xml version="1.0" encoding="UTF-8"?>
<svg id="Capa_2" data-name="Capa 2" xmlns="http://www.w3.org/2000/svg" viewBox="0 0 405.25 53.62">
  <defs>
    <style>
      .cls-1 {
        fill: none;
        stroke: #000;
        stroke-miterlimit: 10;
        stroke-width: .5px;
      }
    </style>
  </defs>
  <g id="Capa_1-2" data-name="Capa 1">
    <g>
      <path class="cls-1" d="M34.76,53.25H.84S33.48,31.84,28.22.25h16.5l-9.96,53Z"/>
      <path class="cls-1" d="M48.78.25h33.92s-32.65,21.41-27.37,53h-16.5L48.78.25Z"/>
      <path class="cls-1" d="M156.02,5.32l-.41-.39-3.68-3.68s-.09-.08-.13-.12c-.02-.02-.03-.04-.05-.05-.11-.11-.23-.21-.36-.3-.05-.03-.11-.06-.16-.1-.1-.06-.2-.12-.32-.17-.12-.05-.25-.09-.38-.12-.06-.02-.12-.04-.19-.06-.2-.04-.4-.07-.62-.07h-8.57c-1.61,0-2.92,1.31-2.92,2.92v13.68c0,.73-.59,1.32-1.33,1.32h-11.17v-9.82c0-1.33-1-2.27-1.81-3.04l-.4-.39-3.67-3.68s-.1-.08-.14-.13c0,0-.01,0-.02-.01-.12-.11-.25-.23-.39-.32-.06-.04-.12-.07-.18-.11-.1-.05-.19-.12-.3-.16-.13-.06-.27-.1-.4-.14-.05-.01-.11-.04-.16-.05-.2-.04-.4-.07-.62-.07h-8.57c-1.61,0-2.92,1.31-2.92,2.92v42.04c0,.19.02.38.05.56.02.1.05.19.08.28.03.08.04.16.08.24.05.12.11.23.17.35.03.04.05.09.07.13.08.13.18.24.27.36.02.02.03.04.05.06l3.32,4.04c.83,1.01,2.51,2.08,4,2.08h8.57c1.61,0,2.92-1.31,2.92-2.92v-14.68c0-.72.61-1.32,1.33-1.32h11.17v10.82c0,.61.19,1.18.52,1.66.03.04.07.07.09.11.09.11.18.22.28.33.01,0,.01.02.02.03l3.66,3.69.38.39c.81.85,1.82,1.91,3.15,1.91h8.57c1.61,0,2.92-1.31,2.92-2.92V8.35c0-1.32-1-2.27-1.81-3.03M120.55,4.23l1.84,1.83s.44.42.44.42c.64.61,1.31,1.24,1.31,1.88v9.82h-2.26c-.73,0-1.33-.59-1.33-1.32V4.23ZM138.23,32.79h-11.17c-1.61,0-2.92,1.31-2.92,2.92v14.68c0,.73-.59,1.32-1.32,1.32h-8.57c-.84,0-2.1-.68-2.77-1.49l-1.73-2.09h7.88c1.61,0,2.92-1.31,2.92-2.92v-14.68c0-.73.6-1.32,1.33-1.32h15.02c.73,0,1.33.59,1.33,1.32v2.26ZM156.23,50.39c0,.73-.59,1.32-1.33,1.32h-8.57c-.65,0-1.36-.75-1.99-1.41l-.4-.42-1.75-1.76h7.54c1.61,0,2.92-1.31,2.92-2.92V4.23l1.85,1.83h0s.44.42.44.42c.64.61,1.31,1.24,1.31,1.87v42.04Z"/>
      <path class="cls-1" d="M181.57,5.31l-.41-.39-3.68-3.68s-.09-.08-.13-.12c-.02-.02-.04-.03-.06-.05-.11-.11-.23-.21-.36-.3-.05-.03-.11-.06-.17-.1-.1-.06-.2-.12-.32-.17-.12-.05-.25-.09-.37-.12-.06-.02-.12-.04-.19-.06-.2-.04-.4-.07-.62-.07h-8.57c-1.61,0-2.92,1.31-2.92,2.92v42.04c0,.83.35,1.58.91,2.11,0,0,0,0,0,0l3.66,3.69s.39.4.39.4c.81.85,1.81,1.9,3.14,1.9h8.57c1.61,0,2.92-1.31,2.92-2.92V8.35c0-1.33-1-2.27-1.8-3.04M181.78,50.39c0,.73-.59,1.32-1.33,1.32h-8.57c-.64,0-1.36-.75-1.98-1.4l-.42-.43-1.75-1.76h7.54c1.61,0,2.92-1.31,2.92-2.92V4.23l1.84,1.83.43.42c.64.61,1.31,1.24,1.31,1.88v42.04Z"/>
      <path class="cls-1" d="M351.26,13.62v-6.68c0-1.4-.78-2.18-1.53-2.93l-.22-.22-3.09-2.59c-.75-.62-1.72-.93-2.89-.93h-39.96c-1.61,0-2.92,1.31-2.92,2.92v7.05c.01.19.12,1.06.58,1.71.55.78,1.4,1.63,2.07,2.32l.63.65c.89.97,1.58,1.61,3.17,1.61h8.92v28.68c0,.17.02.33.05.49.11,1.11.5,2.15,1.07,2.79l2.96,3.09c1.01,1.01,2.7,1.74,4.03,1.74h8.56c1.62,0,2.93-1.31,2.93-2.92V16.53h12.71c1.61,0,2.92-1.31,2.92-2.91M316.04,14.94h-8.92c-.91,0-1.2-.22-1.99-1.09l-.67-.7c-.42-.43-.95-.96-1.39-1.47.17.03.34.05.51.05h12.46v3.21ZM349.67,13.62c0,.73-.59,1.32-1.32,1.32h-14.3v35.45c0,.73-.6,1.32-1.33,1.32h-8.56c-.92,0-2.19-.56-2.89-1.26l-2.23-2.33h8.51c1.61,0,2.92-1.31,2.92-2.92V11.73h13.08c1.61,0,2.93-1.31,2.93-2.93V3.31c.86.72,1.93,1.63,1.97,1.66.04.04.18.17.18.17.73.73,1.06,1.08,1.06,1.79v6.68Z"/>
      <path class="cls-1" d="M291.78,3.78l-.98-.96.02.07s-.02-.03-.03-.04c-.12-.15-.24-.29-.37-.42-.03-.04-.07-.08-.1-.11-.15-.15-.31-.29-.48-.44-.1-.08-.21-.16-.32-.24-.07-.05-.14-.1-.21-.15-.12-.08-.24-.15-.36-.22-.07-.04-.14-.08-.21-.12-.12-.07-.24-.12-.37-.18-.08-.03-.17-.07-.25-.1-.12-.05-.24-.09-.36-.13-.1-.03-.21-.06-.31-.09-.11-.03-.22-.06-.33-.08-.13-.03-.27-.05-.4-.08-.09,0-.17-.03-.27-.04-.23-.02-.46-.04-.7-.04h-33.17c-3.56,0-6.46,2.9-6.46,6.46v35.12c0,.23.01.46.04.69,0,.03.02.07.02.11.02.2.06.39.1.59,0,.01,0,.03,0,.04.13.54.31,1.05.56,1.52,1.8,4.07,7,8.41,12.49,8.41h28.13c3.41,0,9.65-3.6,9.65-9.48V13.22c0-4.29-2.83-7.03-5.33-9.44M295.52,43.9c0,4.81-5.29,7.88-8.06,7.88h-28.13c-2.89,0-5.79-1.46-7.97-3.43.39.08.81.12,1.23.12h33.17c3.56,0,6.46-2.9,6.46-6.46V6.88c0-.15-.02-.3-.03-.45,1.81,1.88,3.33,3.95,3.33,6.79v30.67ZM277.61,35.37c0,.73-.6,1.32-1.33,1.32h-10.65v-18.48c0-.73.6-1.32,1.32-1.32h10.66v18.48ZM260.73,13.3c0-.73.59-1.32,1.32-1.32h14.24c.73,0,1.33.59,1.33,1.32v1.99h-10.66c-1.61,0-2.92,1.31-2.92,2.92v18.48h-1.99c-.72,0-1.32-.59-1.32-1.32V13.3Z"/>
      <path class="cls-1" d="M241.52,49.93s-7.73-10.82-9.11-12.75c2.22-.25,4.06-1.05,5.45-2.44,3.02-3.04,3.22-8.01,3.22-10.83,0-.22,0-1.09,0-1.09v-10.2c0-2.76-1.38-4.79-7.03-10.35-.34-.35-.72-.66-1.14-.92-.1-.08-.21-.13-.32-.2-.04-.02-.08-.04-.11-.07-.94-.53-2.03-.84-3.2-.84h-37.86c-1.01,0-1.9.51-2.42,1.29-.32.46-.5,1.03-.5,1.63v42.04c0,.62.19,1.18.52,1.66,0,.01.02.02.03.03.1.14.21.28.34.4,0,0,.02.02.02.02l3.67,3.69s.39.4.39.4c.81.85,1.81,1.9,3.14,1.9h8.57c1.61,0,2.92-1.31,2.92-2.92v-12.67h5.17c.13.19.69.98,1.42,1.99.55.77,1.09,1.54,1.59,2.25.26.36.5.7.74,1.04.33.46.63.89.89,1.26.1.14.2.28.29.4.26.36.45.64.57.81.06.08.09.13.11.16.02.03.03.04.03.04.27.39.63.75,1.03,1.08h0s3.99,4.25,3.99,4.25c.02.02.41.42.41.42.8.85,1.81,1.9,3.14,1.9h12.79c.79,0,1.41-.33,1.7-.91.35-.68.19-1.58-.45-2.48M206.5,36.13v14.26c0,.73-.6,1.32-1.32,1.32h-8.57c-.64,0-1.36-.75-1.98-1.4l-.42-.43-1.75-1.75h7.98c1.61,0,2.92-1.31,2.92-2.92,0,0,.01-11.11.02-12.52h6.32c.15.2,1.15,1.62,2.45,3.44h-5.63ZM240.55,51.67s-.09.04-.28.04h-12.79c-.64,0-1.36-.75-1.98-1.4l-.42-.43-1.66-1.75h9.23c.79,0,1.41-.33,1.71-.91.13-.24.19-.51.19-.79,0-.52-.21-1.09-.63-1.68,0,0-7.1-10-8.57-12.06h3.93c3.56,0,6.46-2.9,6.46-6.47V6.63c0-.11-.01-.23-.02-.34,3.13,3.3,3.75,4.68,3.75,6.34v10.67c.02,2.44.04,7.51-2.75,10.32-1.37,1.38-3.32,2.08-5.79,2.08h-1.55l10.84,15.17c.35.48.35.77.33.82M221.49,21.01c0,.34-.28.61-.62.61h-12.77v-5.01h13.39v4.4ZM221.49,15.01h-14.99v6.61h-2.53c-.34,0-.62-.27-.62-.61v-8.66c0-.33.28-.62.62-.62h16.89c.34,0,.62.28.62.62v2.66Z"/>
      <path class="cls-1" d="M404.79,50.1l-16.3-41.82c-.4-1.03-4.91-6.57-6.98-7.25-.65-.48-1.42-.78-2.16-.78h-10.08c-1.46,0-3.05,1.16-3.61,2.63l-15.85,42.04-.11.36c-.48,1.54.08,2.58.38,3.14l.07.14c.45.85,1.92,2.67,2.8,3.47,1.01.92,1.87,1.3,2.95,1.3h6.99c1.5,0,3.12-1.16,3.69-2.64,0,0,1.15-2.81,1.46-3.58h17.52c.42.48,3.54,4.09,3.54,4.09.68,1.01,2.32,2.13,3.81,2.13h9.85c.79,0,1.48-.33,1.88-.92.25-.36.37-.79.37-1.24,0-.34-.07-.7-.2-1.06M366.97,45.5l-1.88,4.59c-.34.87-1.37,1.63-2.21,1.63h-6.99c-.67,0-1.16-.23-1.88-.88-.67-.62-1.78-1.97-2.27-2.73.03,0,.05,0,.08,0h8.33c1.47,0,3.06-1.16,3.61-2.64,0,0,1.13-2.99,1.43-3.79h18.24c.3.8,1.43,3.79,1.43,3.79,0,0,0,0,0,.01h-17.9ZM403.32,51.5c-.13.19-.37.22-.56.22h-9.85c-.9,0-2.07-.79-2.54-1.5l-1.81-2.09h8.26c.77,0,1.44-.33,1.83-.89.43-.62.49-1.46.17-2.31l-15.15-40.17c1.5,1.57,3.08,3.47,3.33,4.1l16.31,41.82h0c.13.33.13.63,0,.82M369.2,31.07c.62-1.64,4.04-10.7,5.11-13.55.27.71.69,1.83,1.18,3.11l-4.05,10.44h-2.24ZM373.16,31.07c.56-1.43,2.27-5.85,3.18-8.2,1.29,3.43,2.71,7.2,3.09,8.2h-6.27Z"/>
    </g>
  </g>
</svg>