<svg width="298" height="26" viewBox="0 0 298 26" fill="none" xmlns="http://www.w3.org/2000/svg">
<g clip-path="url(#clip0_215_645)">
<path d="M13.6842 24.3752H0C0 24.3752 13.1639 15.7404 11.0465 3H17.7011L13.6842 24.3752Z" fill="#E21E20"/>
<path d="M19.3386 3H33.0187C33.0187 3 19.8508 11.6348 21.9802 24.3752H15.3257L19.3386 3Z" fill="#3F5BA6"/>
<path d="M62.585 5.04488L62.4197 4.88759L60.9355 3.40342C60.9355 3.40342 60.8992 3.37116 60.8831 3.35503C60.875 3.34696 60.871 3.33889 60.8629 3.33486C60.8185 3.2905 60.7701 3.25017 60.7177 3.21387C60.6976 3.20177 60.6734 3.18967 60.6532 3.17354C60.6129 3.14934 60.5725 3.12514 60.5241 3.10498C60.4757 3.08481 60.4233 3.06868 60.3709 3.05658C60.3467 3.04851 60.3225 3.04045 60.2942 3.03238C60.2136 3.01625 60.1329 3.00415 60.0442 3.00415H56.5879C55.9385 3.00415 55.4102 3.53248 55.4102 4.1818V9.69902C55.4102 9.99344 55.1723 10.2314 54.8738 10.2314H50.3689V6.27093C50.3689 5.73453 49.9656 5.35542 49.6389 5.04488L49.4776 4.88759L47.9975 3.40342C47.9975 3.40342 47.9571 3.37116 47.941 3.35099C47.941 3.35099 47.937 3.35099 47.9329 3.34696C47.8845 3.3026 47.8321 3.2542 47.7756 3.2179C47.7514 3.20177 47.7272 3.18967 47.703 3.17354C47.6627 3.15337 47.6264 3.12514 47.5821 3.10901C47.5296 3.08481 47.4732 3.06868 47.4207 3.05255C47.4006 3.04851 47.3764 3.03641 47.3562 3.03238C47.2755 3.01625 47.1949 3.00415 47.1062 3.00415H43.6498C43.0005 3.00415 42.4722 3.53248 42.4722 4.1818V21.1368C42.4722 21.2134 42.4802 21.29 42.4923 21.3626C42.5004 21.403 42.5125 21.4393 42.5246 21.4755C42.5367 21.5078 42.5407 21.5401 42.5569 21.5723C42.577 21.6207 42.6012 21.6651 42.6254 21.7135C42.6375 21.7296 42.6456 21.7498 42.6537 21.7659C42.6859 21.8184 42.7263 21.8627 42.7625 21.9111C42.7706 21.9192 42.7746 21.9273 42.7827 21.9353L44.1217 23.5647C44.4564 23.972 45.134 24.4035 45.7349 24.4035H49.1912C49.8406 24.4035 50.3689 23.8752 50.3689 23.2259V17.3054C50.3689 17.015 50.6149 16.773 50.9053 16.773H55.4102V21.1368C55.4102 21.3828 55.4868 21.6127 55.6199 21.8063C55.632 21.8224 55.6482 21.8345 55.6562 21.8506C55.6925 21.895 55.7288 21.9394 55.7692 21.9837C55.7732 21.9837 55.7732 21.9918 55.7772 21.9958L57.2533 23.484L57.4066 23.6413C57.7333 23.9841 58.1406 24.4116 58.677 24.4116H62.1333C62.7826 24.4116 63.311 23.8833 63.311 23.234V6.26689C63.311 5.73453 62.9077 5.35139 62.581 5.04488M48.2798 4.60527L49.0219 5.34332L49.1993 5.51271C49.4574 5.75873 49.7276 6.01281 49.7276 6.27093V10.2314H48.8162C48.5218 10.2314 48.2798 9.99344 48.2798 9.69902V4.60527ZM55.4102 16.1237H50.9053C50.256 16.1237 49.7276 16.652 49.7276 17.3013V23.2219C49.7276 23.5163 49.4897 23.7542 49.1953 23.7542H45.7389C45.4002 23.7542 44.892 23.48 44.6218 23.1533L43.9241 22.3104H47.1021C47.7514 22.3104 48.2798 21.7821 48.2798 21.1327V15.2122C48.2798 14.9178 48.5218 14.6798 48.8162 14.6798H54.8738C55.1682 14.6798 55.4102 14.9178 55.4102 15.2122V16.1237ZM62.6697 23.2219C62.6697 23.5163 62.4318 23.7542 62.1333 23.7542H58.677C58.4148 23.7542 58.1285 23.4517 57.8744 23.1856L57.7131 23.0162L57.0073 22.3064H60.0482C60.6975 22.3064 61.2259 21.778 61.2259 21.1287V4.60527L61.972 5.34332L62.1495 5.51271C62.4076 5.75873 62.6778 6.01281 62.6778 6.26689V23.2219H62.6697Z" fill="#3F5BA6"/>
<path d="M72.8932 5.04073L72.7278 4.88344L71.2437 3.39927C71.2437 3.39927 71.2074 3.36701 71.1912 3.35088C71.1832 3.34281 71.1751 3.33878 71.167 3.33071C71.1227 3.28635 71.0743 3.24602 71.0219 3.20972C71.0017 3.19762 70.9775 3.18552 70.9533 3.16939C70.913 3.14519 70.8726 3.12099 70.8242 3.10083C70.7758 3.08066 70.7234 3.06453 70.675 3.05243C70.6508 3.04436 70.6266 3.0363 70.5984 3.02823C70.5177 3.0121 70.4371 3 70.3483 3H66.892C66.2427 3 65.7144 3.52833 65.7144 4.17765V21.1326C65.7144 21.4674 65.8555 21.7698 66.0814 21.9836L67.5575 23.4718L67.7147 23.6331C68.0414 23.9759 68.4447 24.3994 68.9811 24.3994H72.4375C73.0868 24.3994 73.6151 23.8711 73.6151 23.2217V6.26678C73.6151 5.73038 73.2118 5.35127 72.8892 5.04073M72.9779 23.2217C72.9779 23.5162 72.7399 23.7541 72.4415 23.7541H68.9852C68.727 23.7541 68.4367 23.4516 68.1866 23.1895L68.0172 23.0161L67.3114 22.3062H70.3524C71.0017 22.3062 71.53 21.7779 71.53 21.1286V4.60516L72.2721 5.34321L72.4455 5.51259C72.7036 5.75861 72.9739 6.01269 72.9739 6.27081V23.2258L72.9779 23.2217Z" fill="#3F5BA6"/>
<path d="M141.33 8.39219V5.69811C141.33 5.13348 141.016 4.8189 140.713 4.51642L140.624 4.42769L139.378 3.38313C139.076 3.13308 138.685 3.00806 138.213 3.00806H122.097C121.447 3.00806 120.919 3.53639 120.919 4.18571V7.02901C120.923 7.10564 120.967 7.45652 121.153 7.71867C121.375 8.03324 121.717 8.37605 121.988 8.65434L122.242 8.91648C122.601 9.30769 122.879 9.56581 123.52 9.56581H127.118V21.1326C127.118 21.2012 127.126 21.2657 127.138 21.3302C127.182 21.7779 127.34 22.1973 127.569 22.4555L128.763 23.7017C129.171 24.109 129.852 24.4034 130.389 24.4034H133.841C134.494 24.4034 135.023 23.8751 135.023 23.2258V9.56581H140.149C140.798 9.56581 141.326 9.03748 141.326 8.39219M127.122 8.92455H123.524C123.157 8.92455 123.04 8.83582 122.722 8.48495L122.452 8.20263C122.282 8.02921 122.068 7.81546 121.891 7.60977C121.959 7.62187 122.028 7.62994 122.097 7.62994H127.122V8.92455ZM140.685 8.39219C140.685 8.6866 140.447 8.92455 140.153 8.92455H134.385V23.2217C134.385 23.5161 134.143 23.7541 133.849 23.7541H130.397C130.026 23.7541 129.513 23.5282 129.231 23.2459L128.332 22.3062H131.764C132.413 22.3062 132.941 21.7779 132.941 21.1286V7.62994H138.217C138.866 7.62994 139.398 7.10161 139.398 6.44825V4.23411C139.745 4.52449 140.177 4.89149 140.193 4.90359C140.209 4.91973 140.266 4.97215 140.266 4.97215C140.56 5.26657 140.693 5.40773 140.693 5.69407V8.38815L140.685 8.39219Z" fill="#3F5BA6"/>
<path d="M117.342 4.42359L116.946 4.03642L116.955 4.06465C116.955 4.06465 116.946 4.05255 116.942 4.04852C116.894 3.98802 116.846 3.93156 116.793 3.87913C116.781 3.863 116.765 3.84687 116.753 3.83477C116.692 3.77427 116.628 3.71781 116.559 3.65731C116.519 3.62505 116.475 3.59278 116.43 3.56052C116.402 3.54035 116.374 3.52019 116.346 3.50002C116.297 3.46776 116.249 3.43953 116.2 3.4113C116.172 3.39516 116.144 3.37903 116.116 3.3629C116.067 3.33467 116.019 3.3145 115.966 3.2903C115.934 3.27821 115.898 3.26207 115.866 3.24997C115.817 3.22981 115.769 3.21368 115.72 3.19754C115.68 3.18544 115.636 3.17335 115.595 3.16125C115.551 3.14915 115.507 3.13705 115.462 3.12898C115.41 3.11688 115.353 3.10882 115.301 3.09672C115.265 3.09672 115.232 3.08462 115.192 3.08059C115.099 3.07252 115.007 3.06445 114.91 3.06445H101.532C100.096 3.06445 98.9268 4.23404 98.9268 5.66981V19.8339C98.9268 19.9267 98.9308 20.0194 98.9429 20.1122C98.9429 20.1243 98.951 20.1404 98.951 20.1565C98.959 20.2372 98.9752 20.3138 98.9913 20.3945C98.9913 20.3985 98.9913 20.4066 98.9913 20.4106C99.0437 20.6284 99.1163 20.8341 99.2171 21.0237C99.9431 22.6651 102.04 24.4155 104.254 24.4155H115.599C116.975 24.4155 119.491 22.9636 119.491 20.5921V8.2308C119.491 6.50062 118.35 5.39556 117.342 4.42359ZM118.846 20.6042C118.846 22.5441 116.713 23.7823 115.595 23.7823H104.25C103.085 23.7823 101.915 23.1934 101.036 22.3989C101.193 22.4312 101.363 22.4473 101.532 22.4473H114.91C116.346 22.4473 117.515 21.2777 117.515 19.842V5.67384C117.515 5.61334 117.507 5.55285 117.503 5.49235C118.233 6.25057 118.846 7.08541 118.846 8.2308V20.6002V20.6042ZM111.627 17.164C111.627 17.4584 111.385 17.6964 111.09 17.6964H106.795V10.2433C106.795 9.94888 107.037 9.71093 107.328 9.71093H111.627V17.164ZM104.815 8.26306C104.815 7.96865 105.053 7.7307 105.347 7.7307H111.09C111.385 7.7307 111.627 7.96865 111.627 8.26306V9.06564H107.328C106.678 9.06564 106.15 9.59397 106.15 10.2433V17.6964H105.347C105.057 17.6964 104.815 17.4584 104.815 17.164V8.26306Z" fill="#3F5BA6"/>
<path d="M97.0673 23.0361C97.0673 23.0361 93.9498 18.6723 93.3932 17.894C94.2886 17.7931 95.0307 17.4705 95.5912 16.9099C96.8092 15.6838 96.8899 13.6794 96.8899 12.5421C96.8899 12.4534 96.8899 12.1025 96.8899 12.1025V7.98877C96.8899 6.87565 96.3333 6.05694 94.0547 3.81456C93.9175 3.6734 93.7643 3.54838 93.5949 3.44352C93.5546 3.41125 93.5102 3.39109 93.4658 3.36286C93.4497 3.35479 93.4336 3.34673 93.4215 3.33463C93.0424 3.12087 92.6028 2.99585 92.1309 2.99585H76.8617C76.4544 2.99585 76.0955 3.20154 75.8857 3.51611C75.7567 3.70163 75.6841 3.93152 75.6841 4.1735V21.1285C75.6841 21.3785 75.7607 21.6044 75.8938 21.798C75.8938 21.802 75.9019 21.806 75.9059 21.8101C75.9462 21.8665 75.9906 21.923 76.043 21.9714L76.0511 21.9794L77.5312 23.4676L77.6885 23.629C78.0152 23.9718 78.4185 24.3952 78.9549 24.3952H82.4112C83.0605 24.3952 83.5889 23.8669 83.5889 23.2176V18.1077H85.674C85.7264 18.1843 85.9522 18.503 86.2467 18.9103C86.4685 19.2208 86.6863 19.5314 86.8879 19.8177C86.9928 19.9629 87.0896 20.1 87.1864 20.2372C87.3194 20.4227 87.4404 20.5961 87.5453 20.7453C87.5856 20.8018 87.626 20.8583 87.6623 20.9067C87.7671 21.0518 87.8437 21.1648 87.8921 21.2333C87.9163 21.2656 87.9284 21.2858 87.9365 21.2979C87.9446 21.31 87.9486 21.314 87.9486 21.314C88.0575 21.4713 88.2027 21.6165 88.364 21.7496L89.9732 23.4636C89.9813 23.4717 90.1386 23.633 90.1386 23.633C90.4612 23.9758 90.8685 24.3993 91.4049 24.3993H96.5632C96.8818 24.3993 97.1319 24.2662 97.2488 24.0323C97.39 23.758 97.3255 23.395 97.0673 23.0321M82.9476 17.4705V23.2216C82.9476 23.516 82.7056 23.754 82.4153 23.754H78.9589C78.7008 23.754 78.4104 23.4515 78.1604 23.1894L77.991 23.0159L77.2852 22.3102H80.5036C81.1529 22.3102 81.6812 21.7818 81.6812 21.1325C81.6812 21.1325 81.6853 16.6518 81.6893 16.0831H84.2382C84.2987 16.1638 84.702 16.7365 85.2263 17.4705H82.9557H82.9476ZM96.6802 23.7379C96.6802 23.7379 96.6439 23.754 96.5672 23.754H91.409C91.1508 23.754 90.8605 23.4515 90.6104 23.1894L90.441 23.0159L89.7715 22.3102H93.4941C93.8127 22.3102 94.0627 22.1771 94.1837 21.9431C94.2361 21.8464 94.2603 21.7375 94.2603 21.6245C94.2603 21.4148 94.1756 21.1849 94.0063 20.947C94.0063 20.947 91.1428 16.9139 90.5499 16.0831H92.1349C93.5707 16.0831 94.7403 14.9135 94.7403 13.4737V5.57297C94.7403 5.52861 94.7362 5.48021 94.7322 5.43585C95.9946 6.76676 96.2446 7.32332 96.2446 7.99281V12.2961C96.2527 13.2801 96.2607 15.3249 95.1355 16.4582C94.583 17.0148 93.7965 17.2971 92.8004 17.2971H92.1752L96.5471 23.4152C96.6882 23.6088 96.6882 23.7258 96.6802 23.7459M88.9932 11.3725C88.9932 11.5096 88.8802 11.6185 88.7431 11.6185H83.5929V9.59796H88.9932V11.3725ZM88.9932 8.95267H82.9476V11.6185H81.9273C81.7901 11.6185 81.6772 11.5096 81.6772 11.3725V7.87988C81.6772 7.74679 81.7901 7.62983 81.9273 7.62983H88.7391C88.8762 7.62983 88.9891 7.74276 88.9891 7.87988V8.95267H88.9932Z" fill="#3F5BA6"/>
<path d="M162.92 23.1048L156.346 6.23854C156.184 5.82314 154.365 3.58883 153.531 3.31458C153.268 3.12099 152.958 3 152.659 3H148.594C148.005 3 147.364 3.46783 147.138 4.06069L140.746 21.0157L140.701 21.1609C140.508 21.7819 140.734 22.2014 140.855 22.4272L140.883 22.4837C141.064 22.8265 141.657 23.5605 142.012 23.8832C142.42 24.2542 142.766 24.4075 143.202 24.4075H146.021C146.626 24.4075 147.279 23.9396 147.509 23.3427C147.509 23.3427 147.973 22.2094 148.098 21.8989H155.164C155.333 22.0925 156.592 23.5484 156.592 23.5484C156.866 23.9558 157.527 24.4075 158.128 24.4075H162.101C162.419 24.4075 162.698 24.2744 162.859 24.0364C162.96 23.8912 163.008 23.7178 163.008 23.5363C163.008 23.3992 162.98 23.254 162.928 23.1088M147.667 21.2496L146.908 23.1008C146.771 23.4516 146.356 23.7581 146.017 23.7581H143.198C142.928 23.7581 142.73 23.6654 142.44 23.4032C142.169 23.1532 141.722 22.6087 141.524 22.3022C141.536 22.3022 141.544 22.3022 141.556 22.3022H144.916C145.509 22.3022 146.15 21.8344 146.372 21.2375C146.372 21.2375 146.828 20.0316 146.949 19.709H154.305C154.426 20.0316 154.882 21.2375 154.882 21.2375C154.882 21.2375 154.882 21.2375 154.882 21.2415H147.663L147.667 21.2496ZM162.323 23.6694C162.27 23.746 162.173 23.7581 162.097 23.7581H158.124C157.761 23.7581 157.289 23.4395 157.1 23.1532L156.37 22.3103H159.701C160.012 22.3103 160.282 22.1772 160.439 21.9513C160.613 21.7013 160.637 21.3625 160.508 21.0197L154.398 4.81891C155.003 5.4521 155.64 6.21838 155.741 6.47246L162.319 23.3387C162.371 23.4718 162.371 23.5928 162.319 23.6694M148.566 15.4299C148.816 14.7685 150.195 11.1145 150.627 9.96509C150.736 10.2514 150.905 10.7031 151.103 11.2194L149.469 15.4299H148.566ZM150.159 15.4299C150.385 14.8532 151.074 13.0705 151.441 12.1228C151.962 13.5061 152.534 15.0266 152.688 15.4299H150.159Z" fill="#3F5BA6"/>
</g>
<path opacity="0.75" d="M177.776 7.06126H179.422V9.23887H177.776V7.06126ZM177.776 14.9352H179.422V18.4804H177.776V14.9352ZM176.355 9.57082H178.015C177.953 10.1462 177.851 10.6685 177.71 11.1376C177.568 11.6068 177.342 12.0273 177.032 12.3991C176.723 12.7708 176.293 13.0984 175.744 13.3816C175.196 13.6561 174.487 13.8862 173.62 14.0721C173.576 13.9393 173.505 13.7888 173.407 13.6206C173.319 13.4525 173.217 13.2887 173.102 13.1294C172.987 12.9612 172.876 12.8284 172.77 12.731C173.523 12.5982 174.124 12.4389 174.576 12.253C175.027 12.0583 175.373 11.8325 175.612 11.5758C175.86 11.3191 176.032 11.0226 176.129 10.6862C176.236 10.3498 176.311 9.97802 176.355 9.57082ZM179.276 9.54427H180.857V11.8148C180.857 12.0007 180.883 12.1158 180.936 12.1601C180.998 12.2043 181.131 12.2264 181.335 12.2264C181.388 12.2264 181.463 12.2264 181.56 12.2264C181.666 12.2264 181.782 12.2264 181.905 12.2264C182.029 12.2264 182.149 12.2264 182.264 12.2264C182.379 12.2264 182.463 12.2264 182.516 12.2264C182.631 12.2264 182.715 12.2043 182.769 12.1601C182.831 12.1069 182.875 12.014 182.901 11.8812C182.928 11.7396 182.95 11.5316 182.968 11.2571C183.074 11.3368 183.207 11.4121 183.366 11.4829C183.525 11.5537 183.694 11.6201 183.871 11.682C184.048 11.7352 184.203 11.775 184.335 11.8015C184.282 12.2619 184.194 12.6248 184.07 12.8904C183.946 13.1471 183.773 13.3285 183.552 13.4348C183.331 13.5321 183.039 13.5808 182.676 13.5808C182.596 13.5808 182.485 13.5808 182.344 13.5808C182.202 13.5808 182.047 13.5808 181.879 13.5808C181.72 13.5808 181.565 13.5808 181.414 13.5808C181.273 13.5808 181.166 13.5808 181.096 13.5808C180.6 13.5808 180.219 13.5277 179.954 13.4215C179.697 13.3064 179.52 13.1205 179.422 12.8638C179.325 12.6071 179.276 12.2619 179.276 11.8281V9.54427ZM172.956 8.25629H184.362V11.0181H182.715V9.7036H174.523V11.2704H172.956V8.25629ZM174.204 14.3244H183.353V15.7451H174.204V14.3244ZM172.81 17.7369H184.481V19.1842H172.81V17.7369ZM197.135 7.0347L198.291 8.36251C197.609 8.53955 196.865 8.69447 196.06 8.82725C195.263 8.95118 194.436 9.06183 193.577 9.1592C192.718 9.24772 191.855 9.32296 190.988 9.38493C190.12 9.43804 189.284 9.47787 188.478 9.50443C188.452 9.30083 188.398 9.06183 188.319 8.78741C188.239 8.50415 188.159 8.27399 188.08 8.09695C188.876 8.07039 189.691 8.02613 190.523 7.96417C191.364 7.9022 192.183 7.82696 192.979 7.73844C193.785 7.64992 194.542 7.54812 195.25 7.43305C195.958 7.31797 196.587 7.18519 197.135 7.0347ZM188.213 10.8057H198.702V12.3327H188.213V10.8057ZM187.296 13.8995H199.499V15.4663H187.296V13.8995ZM192.568 8.92019H194.228V17.6306C194.228 18.1087 194.161 18.4627 194.028 18.6929C193.904 18.9319 193.679 19.1178 193.351 19.2506C193.041 19.3656 192.639 19.4409 192.143 19.4763C191.656 19.5117 191.072 19.525 190.39 19.5161C190.364 19.3656 190.311 19.193 190.231 18.9983C190.16 18.8124 190.08 18.6221 189.992 18.4273C189.903 18.2414 189.819 18.0777 189.74 17.936C190.076 17.9449 190.408 17.9537 190.735 17.9626C191.063 17.9714 191.355 17.9759 191.612 17.9759C191.868 17.9759 192.05 17.9759 192.156 17.9759C192.307 17.967 192.413 17.936 192.475 17.8829C192.537 17.8298 192.568 17.7369 192.568 17.6041V8.92019ZM202.221 8.98658H214.039V10.5136H202.221V8.98658ZM202.805 17.8033C203.381 17.7147 204.04 17.6041 204.784 17.4713C205.527 17.3297 206.311 17.1792 207.134 17.0198C207.957 16.8605 208.767 16.7056 209.564 16.5551L209.71 18.1087C208.966 18.268 208.209 18.4273 207.439 18.5867C206.678 18.746 205.939 18.8965 205.222 19.0381C204.514 19.1798 203.863 19.3125 203.27 19.4365L202.805 17.8033ZM212.751 11.1642L214.118 12.1468C213.755 12.4832 213.366 12.8195 212.95 13.1559C212.534 13.4923 212.122 13.811 211.715 14.1119C211.308 14.4041 210.923 14.6652 210.56 14.8953L209.378 13.9393C209.741 13.7092 210.126 13.4436 210.533 13.1426C210.949 12.8328 211.352 12.5053 211.741 12.1601C212.131 11.8148 212.467 11.4829 212.751 11.1642ZM207.253 7.06126H208.913V9.95589H207.253V7.06126ZM209.418 9.8895C209.551 10.8013 209.723 11.6422 209.936 12.4123C210.157 13.1825 210.453 13.9039 210.825 14.5767C211.197 15.2406 211.679 15.8602 212.273 16.4356C212.874 17.0021 213.622 17.5377 214.517 18.0423C214.304 18.2104 214.083 18.4318 213.853 18.7062C213.631 18.9806 213.468 19.2417 213.361 19.4896C212.388 18.8699 211.578 18.2193 210.931 17.5377C210.294 16.8561 209.772 16.1391 209.365 15.3866C208.966 14.6254 208.652 13.8154 208.422 12.9567C208.192 12.0892 207.997 11.1598 207.838 10.1683L209.418 9.8895ZM207.333 9.51771L208.94 10.1683C208.453 10.8411 207.882 11.4917 207.227 12.1202C206.581 12.7487 205.872 13.3241 205.102 13.8464C204.332 14.3686 203.527 14.8157 202.686 15.1875C202.624 15.0547 202.535 14.8998 202.42 14.7227C202.314 14.5457 202.208 14.3731 202.101 14.2049C201.995 14.0367 201.898 13.8995 201.809 13.7933C202.571 13.4923 203.305 13.1161 204.014 12.6646C204.731 12.2043 205.377 11.7042 205.952 11.1642C206.528 10.6154 206.988 10.0665 207.333 9.51771ZM204.691 13.3816L206.005 12.0671L206.311 12.1733V18.0555H204.691V13.3816ZM224.063 9.25215C223.975 9.9249 223.86 10.6419 223.718 11.4032C223.577 12.1645 223.386 12.9346 223.147 13.7136C222.891 14.6077 222.59 15.3778 222.244 16.024C221.899 16.6702 221.519 17.1703 221.102 17.5244C220.695 17.8696 220.248 18.0423 219.761 18.0423C219.275 18.0423 218.823 17.8785 218.407 17.551C218 17.2146 217.672 16.7543 217.424 16.17C217.185 15.5858 217.066 14.9219 217.066 14.1783C217.066 13.4082 217.221 12.6823 217.531 12.0007C217.84 11.3191 218.27 10.7172 218.819 10.1949C219.376 9.66377 220.023 9.24772 220.757 8.94675C221.501 8.64578 222.302 8.49529 223.161 8.49529C223.984 8.49529 224.723 8.62808 225.378 8.89364C226.042 9.1592 226.608 9.52656 227.078 9.99572C227.547 10.4649 227.905 11.0137 228.153 11.6422C228.401 12.2707 228.525 12.9479 228.525 13.6738C228.525 14.6032 228.335 15.4353 227.954 16.17C227.573 16.9048 227.007 17.5111 226.254 17.9891C225.511 18.4672 224.581 18.7947 223.466 18.9717L222.47 17.3916C222.727 17.3651 222.953 17.3341 223.147 17.2987C223.342 17.2633 223.528 17.2234 223.705 17.1792C224.13 17.073 224.524 16.9225 224.887 16.7277C225.259 16.5241 225.582 16.2763 225.856 15.9842C226.13 15.6832 226.343 15.3335 226.493 14.9352C226.653 14.5368 226.732 14.0987 226.732 13.6206C226.732 13.0984 226.653 12.6204 226.493 12.1866C226.334 11.7529 226.099 11.3766 225.79 11.058C225.48 10.7304 225.104 10.4826 224.661 10.3144C224.218 10.1374 223.709 10.0488 223.134 10.0488C222.426 10.0488 221.802 10.1772 221.262 10.4339C220.722 10.6818 220.266 11.0049 219.894 11.4032C219.522 11.8015 219.239 12.2309 219.044 12.6912C218.858 13.1515 218.766 13.5897 218.766 14.0057C218.766 14.4483 218.819 14.8201 218.925 15.1211C219.031 15.4132 219.159 15.6345 219.31 15.785C219.469 15.9266 219.637 15.9974 219.814 15.9974C220 15.9974 220.182 15.9045 220.359 15.7186C220.545 15.5238 220.726 15.2317 220.903 14.8422C221.08 14.4527 221.257 13.9615 221.434 13.3684C221.638 12.731 221.811 12.0494 221.952 11.3235C222.094 10.5977 222.196 9.8895 222.258 9.19903L224.063 9.25215Z" fill="black"/>
<path opacity="0.75" d="M237.793 4.605C237.734 4.94348 237.69 5.33347 237.661 5.77497C237.646 6.21647 237.639 6.59174 237.639 6.90079C237.639 7.12154 237.639 7.51153 237.639 8.07076C237.639 8.62999 237.639 9.28487 237.639 10.0354C237.639 10.7712 237.639 11.5512 237.639 12.3754C237.639 13.1848 237.639 13.9721 237.639 14.7374C237.639 15.4879 237.639 16.1575 237.639 16.7462C237.639 17.3348 237.639 17.769 237.639 18.0486C237.639 18.5195 237.749 18.8433 237.97 19.0199C238.205 19.1965 238.573 19.3363 239.074 19.4393C239.397 19.4835 239.78 19.5203 240.221 19.5497C240.663 19.5644 241.126 19.5718 241.612 19.5718C242.186 19.5718 242.819 19.557 243.511 19.5276C244.217 19.4835 244.923 19.432 245.63 19.3731C246.351 19.3142 247.028 19.2333 247.661 19.1303C248.308 19.0273 248.86 18.9169 249.316 18.7991V22.0441C248.625 22.1324 247.815 22.206 246.888 22.2649C245.976 22.3385 245.041 22.39 244.085 22.4194C243.143 22.4636 242.26 22.4856 241.436 22.4856C240.729 22.4856 240.052 22.4636 239.405 22.4194C238.757 22.3753 238.198 22.3164 237.727 22.2428C236.77 22.0662 236.027 21.7057 235.497 21.1612C234.968 20.6166 234.703 19.8735 234.703 18.9316C234.703 18.5048 234.703 17.9529 234.703 17.276C234.703 16.5843 234.703 15.8264 234.703 15.0023C234.703 14.1634 234.703 13.3246 234.703 12.4857C234.703 11.6322 234.703 10.8301 234.703 10.0796C234.703 9.31431 234.703 8.65206 234.703 8.09283C234.703 7.5336 234.703 7.13625 234.703 6.90079C234.703 6.68004 234.695 6.42986 234.681 6.15024C234.666 5.87063 234.644 5.59101 234.614 5.3114C234.585 5.01707 234.556 4.7816 234.526 4.605H237.793ZM236.336 11.382C237.043 11.2348 237.801 11.0509 238.61 10.8301C239.419 10.6094 240.229 10.3739 241.038 10.1237C241.862 9.87354 242.642 9.616 243.378 9.3511C244.114 9.0862 244.769 8.83602 245.343 8.60055C245.74 8.43867 246.13 8.26207 246.513 8.07076C246.91 7.87944 247.322 7.65869 247.749 7.40851L248.941 10.1899C248.514 10.3665 248.065 10.5505 247.594 10.7418C247.138 10.9331 246.726 11.1024 246.358 11.2495C245.711 11.4997 244.968 11.7646 244.129 12.0442C243.29 12.3238 242.414 12.6035 241.502 12.8831C240.604 13.148 239.706 13.4055 238.809 13.6557C237.926 13.8912 237.109 14.0972 236.358 14.2738L236.336 11.382ZM255.012 6.34892C255.468 6.36363 255.895 6.37835 256.292 6.39307C256.704 6.39307 257.057 6.39307 257.352 6.39307C257.587 6.39307 257.948 6.39307 258.433 6.39307C258.934 6.39307 259.515 6.39307 260.177 6.39307C260.839 6.39307 261.546 6.39307 262.296 6.39307C263.047 6.39307 263.797 6.39307 264.548 6.39307C265.313 6.39307 266.027 6.39307 266.689 6.39307C267.351 6.39307 267.925 6.39307 268.411 6.39307C268.911 6.39307 269.272 6.39307 269.493 6.39307C269.772 6.39307 270.103 6.39307 270.486 6.39307C270.883 6.37835 271.281 6.36363 271.678 6.34892C271.663 6.6874 271.649 7.04795 271.634 7.43059C271.634 7.7985 271.634 8.1517 271.634 8.49018C271.634 8.69621 271.634 9.01998 271.634 9.46147C271.634 9.88825 271.634 10.4033 271.634 11.0067C271.634 11.5954 271.634 12.2282 271.634 12.9052C271.634 13.5674 271.634 14.237 271.634 14.914C271.634 15.5909 271.634 16.2311 271.634 16.8345C271.634 17.4231 271.634 17.9382 271.634 18.3797C271.634 18.8065 271.634 19.1156 271.634 19.3069C271.634 19.5276 271.634 19.8072 271.634 20.1457C271.649 20.4695 271.656 20.8006 271.656 21.1391C271.656 21.4628 271.656 21.7498 271.656 22C271.671 22.2355 271.678 22.3606 271.678 22.3753H268.632C268.632 22.3458 268.632 22.1692 268.632 21.8455C268.646 21.507 268.654 21.1096 268.654 20.6534C268.669 20.1972 268.676 19.7704 268.676 19.3731C268.676 19.1818 268.676 18.858 268.676 18.4018C268.676 17.9456 268.676 17.4084 268.676 16.7903C268.676 16.1722 268.676 15.5173 268.676 14.8257C268.676 14.134 268.676 13.457 268.676 12.7948C268.676 12.1325 268.676 11.5292 268.676 10.9846C268.676 10.4401 268.676 10.006 268.676 9.68222C268.676 9.35846 268.676 9.19657 268.676 9.19657H258.014C258.014 9.19657 258.014 9.35846 258.014 9.68222C258.014 10.006 258.014 10.4401 258.014 10.9846C258.014 11.5144 258.014 12.1178 258.014 12.7948C258.014 13.457 258.014 14.134 258.014 14.8257C258.014 15.5026 258.014 16.1575 258.014 16.7903C258.014 17.4084 258.014 17.9456 258.014 18.4018C258.014 18.858 258.014 19.1818 258.014 19.3731C258.014 19.638 258.014 19.9397 258.014 20.2782C258.014 20.6019 258.014 20.9183 258.014 21.2274C258.028 21.5364 258.036 21.794 258.036 22C258.036 22.2207 258.036 22.3458 258.036 22.3753H254.99C254.99 22.3458 254.99 22.2207 254.99 22C255.004 21.7793 255.012 21.507 255.012 21.1832C255.026 20.8595 255.034 20.5283 255.034 20.1899C255.048 19.8514 255.056 19.5497 255.056 19.2848C255.056 19.0935 255.056 18.7844 255.056 18.3576C255.056 17.9161 255.056 17.3937 255.056 16.7903C255.056 16.187 255.056 15.5541 255.056 14.8919C255.056 14.2149 255.056 13.538 255.056 12.861C255.056 12.184 255.056 11.5512 255.056 10.9626C255.056 10.3592 255.056 9.8441 255.056 9.41732C255.056 8.99054 255.056 8.68149 255.056 8.49018C255.056 8.18113 255.056 7.82793 255.056 7.43059C255.056 7.01852 255.041 6.65797 255.012 6.34892ZM269.78 18.3576V21.1832H256.513V18.3576H269.78ZM283.775 11.669C284.452 12.0516 285.188 12.5078 285.983 13.0376C286.792 13.5527 287.609 14.0898 288.433 14.6491C289.257 15.2083 290.03 15.7528 290.751 16.2826C291.487 16.8124 292.105 17.2833 292.605 17.6954L290.508 20.1899C290.022 19.7484 289.419 19.2406 288.698 18.6667C287.991 18.078 287.226 17.482 286.402 16.8786C285.578 16.2605 284.761 15.6719 283.952 15.1126C283.157 14.5534 282.443 14.0751 281.81 13.6778L283.775 11.669ZM294.15 7.91623C294.018 8.12227 293.885 8.36509 293.753 8.6447C293.621 8.92432 293.51 9.20393 293.422 9.48355C293.201 10.1605 292.899 10.9184 292.517 11.7573C292.149 12.5814 291.707 13.4276 291.192 14.2959C290.677 15.1494 290.089 15.9883 289.426 16.8124C288.381 18.1075 287.123 19.3363 285.651 20.4989C284.195 21.6615 282.406 22.6475 280.287 23.4569L277.727 21.2274C279.272 20.7564 280.611 20.1972 281.744 19.5497C282.877 18.9022 283.856 18.2105 284.68 17.4747C285.519 16.7388 286.248 16.003 286.866 15.2672C287.366 14.6932 287.837 14.053 288.278 13.3467C288.735 12.6255 289.125 11.9118 289.448 11.2054C289.787 10.4843 290.022 9.8441 290.155 9.28487H282.693L283.709 6.76834H289.978C290.331 6.76834 290.677 6.74626 291.016 6.70212C291.369 6.65797 291.663 6.5991 291.899 6.52552L294.15 7.91623ZM286.866 4.5167C286.601 4.89933 286.336 5.3114 286.071 5.75289C285.821 6.19439 285.629 6.53287 285.497 6.76834C284.997 7.65133 284.364 8.5932 283.599 9.59392C282.833 10.5799 281.972 11.5439 281.016 12.4857C280.074 13.4276 279.073 14.2664 278.014 15.0023L275.63 13.1701C276.925 12.3606 278.021 11.5144 278.919 10.6314C279.831 9.73373 280.589 8.87281 281.192 8.04868C281.796 7.20984 282.281 6.46665 282.649 5.81912C282.826 5.55422 283.01 5.20102 283.201 4.75953C283.407 4.30331 283.562 3.89125 283.665 3.52333L286.866 4.5167Z" fill="black"/>
<defs>
<clipPath id="clip0_215_645">
<rect width="163" height="21.4236" fill="white" transform="translate(0 3)"/>
</clipPath>
</defs>
</svg>
