<svg width="202" height="428" viewBox="0 0 202 428" fill="none" xmlns="http://www.w3.org/2000/svg">
<path d="M99.577 149.326L86.577 141.96M99.577 149.326C101.815 150.326 106.969 152.526 109.684 153.326M99.577 149.326C96.9586 150.139 91.8944 152.096 85.577 155.246M104.077 161.826C104.41 161.66 105.777 160.226 108.577 155.826C109.079 155.038 109.439 154.194 109.684 153.326M104.077 161.826L107.077 161.826C108.551 161.09 110.581 160.041 112.577 158.95M104.077 161.826C102.41 162.119 98.377 162.328 95.577 160.826C92.077 158.95 89.577 157.165 85.577 155.246M101.226 136.826C98.9766 135.421 96.8437 134.603 95.577 135.326C92.777 136.926 87.077 139.66 84.577 140.826L85.577 141.393M101.226 136.826C103.949 138.528 106.843 141.092 108.577 142.826C109.535 144.878 110.806 149.355 109.684 153.326M101.226 136.826C104.875 136.326 114.077 141.326 116.577 142.826C116.926 143.036 117.246 143.382 117.537 143.826M86.577 141.96C80.2437 145.249 65.877 153.226 59.077 158.826C50.577 165.826 23.077 178.826 21.577 178.826L26.077 186.326C34.077 183.493 53.577 175.426 67.577 165.826C73.9926 161.427 80.2332 157.91 85.577 155.246M86.577 141.96L85.577 141.393M117.866 155.826C118.829 155.177 119.471 154.643 119.577 154.326C120.007 153.036 119.327 146.564 117.537 143.826M117.866 155.826C116.527 156.731 114.569 157.861 112.577 158.95M117.866 155.826C121.365 157.181 126.375 159.151 131.779 161.326M117.537 143.826C117.975 143.988 118.421 144.155 118.872 144.326M112.577 158.95C116.545 159.575 125.94 160.926 131.779 161.326M131.779 161.326C141.671 165.309 152.886 169.981 158.577 172.826C167.377 177.226 186.577 185.993 195.077 189.826C196.91 188.66 200.677 186.226 201.077 185.826C201.477 185.426 177.577 172.326 165.577 165.826C161.648 163.8 155.505 160.722 148.577 157.406M118.872 144.326C121.94 143.493 129.577 141.626 135.577 140.826C141.577 140.026 147.41 140.16 149.577 140.326L149.577 151.326C149.279 151.343 148.943 151.361 148.577 151.379M118.872 144.326C124.055 146.293 130.052 148.861 136.077 151.582M136.077 151.582C139.181 151.766 145.182 151.548 148.577 151.379M136.077 151.582C140.321 153.499 144.58 155.492 148.577 157.406M148.577 151.379L148.577 157.406M59.7548 158.28C58.9214 155.78 57.177 149.926 57.577 148.326M57.577 148.326C57.9104 144.993 58.777 138.026 59.577 136.826C60.377 135.626 74.9104 139.8 82.077 142.037M57.577 148.326C57.9309 146.911 72.3979 143.861 82.077 142.037M85.577 141.393C84.5197 141.583 83.3391 141.8 82.077 142.037" stroke="black"/>
<path d="M61.077 136.327C58.4104 127.993 52.677 110.727 51.077 108.327C53.2437 113.16 57.477 124.327 57.077 130.327C57.077 138.827 55.577 142.327 54.577 144.827C53.777 146.827 48.2437 160.66 45.577 167.327" stroke="black"/>
<path d="M41.577 179.827L40.577 188.827C35.7437 187.993 24.377 186.427 17.577 186.827C9.07703 187.327 4.07703 184.827 0.577026 183.827C4.24369 164.66 12.177 123.427 14.577 111.827C17.577 97.3266 18.077 83.8266 23.077 66.8266C27.077 53.2266 31.4104 40.8266 33.077 36.3266C33.9104 33.3266 36.677 26.8266 41.077 24.8266C45.477 22.8266 60.9104 17.66 68.077 15.3266L71.077 14.3266C72.9104 11.3266 76.877 4.62662 78.077 1.82662C78.2703 1.74931 78.5999 1.65405 79.077 1.55335M79.077 1.55335C80.6569 1.21989 83.8543 0.826622 89.077 0.826622C96.3627 0.826622 111.363 0.0919283 116.13 0.826622M79.077 1.55335C79.077 3.78019 83.577 9.82651 87.077 14.3266C89.877 17.9267 100.91 34.8266 106.077 42.8265C108.41 36.6598 113.577 22.3265 115.577 14.3266C118.077 4.32674 118.577 2.82662 117.577 1.32662C117.434 1.11234 116.924 0.949071 116.13 0.826622M90.577 137.827C92.077 132.827 95.777 120.627 98.577 111.827C101.377 103.027 113.744 66.8265 119.577 49.8265L127.577 22.8265C127.744 21.1599 127.577 17.3267 125.577 15.3266M125.577 15.3266C123.077 12.8265 119.077 4.82674 119.577 1.32662C119.577 1.18449 119.177 0.885493 117.577 0.826622C115.977 0.767751 115.945 0.802092 116.13 0.826622M125.577 15.3266C133.244 17.1599 149.677 21.4265 154.077 23.8265C159.577 26.8265 170.077 31.3265 170.577 38.8265C171.077 46.3265 173.577 64.3265 164.077 91.8265C154.577 119.327 147.577 130.827 146.577 139.827" stroke="black"/>
<path d="M51.0769 108.327C44.2435 88.3265 31.1769 45.6265 33.5769 34.8265" stroke="black"/>
<path d="M76.577 140.827C86.977 86.8265 100.577 52.9932 106.077 42.8265" stroke="black"/>
<path d="M70.077 14.8265C73.7437 19.4932 82.677 31.2265 89.077 40.8265C95.477 50.4265 98.7437 55.8265 99.577 57.3265" stroke="black"/>
<path d="M171.077 48.3265C174.744 62.3265 182.977 96.1265 186.577 119.327C190.177 142.527 195.077 171.66 197.077 183.327" stroke="black"/>
<path d="M40.077 266.327L50.077 268.827L52.077 267.327C53.077 267.993 59.877 269.527 79.077 270.327C98.277 271.127 125.744 270.66 137.077 270.327C147.244 269.327 168.177 267.327 170.577 267.327C172.977 267.327 172.91 267.327 172.577 267.327C171.244 260.993 168.477 245.727 168.077 235.327C167.577 222.327 157.577 174.327 154.577 170.827" stroke="black"/>
<path d="M161.577 195.327C162.244 194.827 164.077 193.727 166.077 193.327C168.577 192.827 179.577 192.827 185.077 191.827C189.477 191.027 193.244 190.16 194.577 189.827M40.077 266.327C41.2437 263.16 44.677 252.527 49.077 235.327C54.577 213.827 56.577 199.827 59.077 192.827C61.077 187.227 65.577 172.493 67.577 165.827" stroke="black"/>
<path d="M52.077 267.327C54.477 260.927 61.077 237.327 64.077 226.327C65.9104 216.993 70.477 195.927 74.077 186.327C77.677 176.727 82.2437 161.993 84.077 155.827" stroke="black"/>
<path d="M171.577 263.827L174.577 263.827L169.077 246.327" stroke="black"/>
<path d="M158.077 268.327L170.077 418.327C167.91 421.327 160.377 427.127 147.577 426.327C131.577 425.327 121.077 423.827 114.077 416.827C114.577 392.827 115.277 342.727 114.077 334.327C113.91 328.493 113.177 315.727 111.577 311.327C109.977 306.927 107.91 302.16 107.077 300.327C107.41 293.16 107.877 277.227 107.077 270.827" stroke="black"/>
<path d="M107.077 300.327C106.244 307.827 104.077 324.727 102.077 332.327C100.077 339.927 101.91 394.16 103.077 420.327C98.4103 422.827 85.877 427.527 73.077 426.327C67.077 425.827 53.577 423.827 47.577 419.827C48.077 400.827 49.177 359.327 49.577 345.327C49.977 331.327 52.077 287.827 53.077 267.827" stroke="black"/>
<path d="M44.077 267.327L43.077 270.827C44.4104 270.16 47.277 268.727 48.077 268.327" stroke="black"/>
<path d="M84.577 11.3267C93.9104 10.9933 113.277 10.5265 116.077 11.3265" stroke="black"/>
<path d="M48.077 238.5L53.702 194.515L58.077 171.5" stroke="black"/>
<path d="M47.6237 260.808L43.577 260.045C43.577 260.045 47.9692 258.135 48.0769 254.116L50.0454 254.487L47.6237 260.808Z" stroke="black" stroke-width="0.4" stroke-miterlimit="10"/>
<path d="M50.5302 254.578L54.5769 255.341C54.5769 255.341 50.1834 257.25 50.0782 261.27L48.1097 260.899L50.5302 254.578Z" stroke="black" stroke-width="0.4" stroke-miterlimit="10"/>
</svg>
